<?xml version="1.0" encoding="utf-8" standalone="no"?>
<!DOCTYPE svg PUBLIC "-//W3C//DTD SVG 1.1//EN"
  "http://www.w3.org/Graphics/SVG/1.1/DTD/svg11.dtd">
<!-- Created with matplotlib (https://matplotlib.org/) -->
<svg height="340.15748pt" version="1.1" viewBox="0 0 1218.897638 340.15748" width="1218.897638pt" xmlns="http://www.w3.org/2000/svg" xmlns:xlink="http://www.w3.org/1999/xlink">
 <defs>
  <style type="text/css">
*{stroke-linecap:butt;stroke-linejoin:round;}
  </style>
 </defs>
 <g id="figure_1">
  <g id="patch_1">
   <path d="M 0 340.15748 
L 1218.897638 340.15748 
L 1218.897638 0 
L 0 0 
z
" style="fill:#ffffff;"/>
  </g>
  <g id="axes_1">
   <g id="line2d_1">
    <path clip-path="url(#p9d9e5a87ad)" d="M 372.755906 283.464567 
L 372.755906 260.787402 
L 364.251969 260.787402 
L 364.251969 283.464567 
L 56.692913 283.464567 
L 56.692913 226.771654 
L 56.692913 226.771654 
L 566.929134 226.771654 
L 572.598425 223.426772 
L 578.267717 221.159055 
L 583.937008 219.911811 
L 589.606299 217.927559 
L 595.275591 216.623622 
L 600.944882 214.63937 
L 606.614173 211.974803 
L 612.283465 209.508661 
L 617.952756 208.40315 
L 623.622047 209.933858 
L 629.291339 212.059843 
L 634.96063 213.420472 
L 640.629921 216.623622 
L 646.299213 220.138583 
L 651.968504 219.713386 
L 657.637795 218.777953 
L 663.307087 218.579528 
L 668.976378 217.785827 
L 674.645669 216.680315 
L 680.314961 214.724409 
L 685.984252 214.072441 
L 691.653543 214.044094 
L 697.322835 212.966929 
L 702.992126 211.407874 
L 714.330709 207.779528 
L 720 204.576378 
L 725.669291 202.138583 
L 731.338583 202.138583 
L 737.007874 203.244094 
L 742.677165 203.187402 
L 748.346457 203.414173 
L 754.015748 204.037795 
L 759.685039 205.341732 
L 765.354331 205.341732 
L 771.023622 205.68189 
L 782.362205 205.625197 
L 788.031496 205.738583 
L 793.700787 207.184252 
L 799.370079 209.707087 
L 805.03937 210.840945 
L 810.708661 213.051969 
L 816.377953 214.63937 
L 822.047244 214.922835 
L 827.716535 216.793701 
L 833.385827 218.182677 
L 839.055118 220.138583 
L 844.724409 220.620472 
L 850.393701 221.640945 
L 856.062992 223.171654 
L 861.732283 223.851969 
L 867.401575 223.880315 
L 873.070866 226.771654 
L 1162.204724 226.771654 
L 1162.204724 226.771654 
L 1162.204724 283.464567 
L 882.992126 283.464567 
L 882.992126 260.787402 
L 874.488189 260.787402 
L 874.488189 283.464567 
L 371.338583 283.464567 
L 371.338583 283.464567 
" style="fill:none;stroke:#ff0000;stroke-linecap:round;stroke-width:0.8;"/>
   </g>
   <g id="text_1">
    <!-- 058 -->
    <defs>
     <path d="M 31.78125 66.40625 
Q 24.171875 66.40625 20.328125 58.90625 
Q 16.5 51.421875 16.5 36.375 
Q 16.5 21.390625 20.328125 13.890625 
Q 24.171875 6.390625 31.78125 6.390625 
Q 39.453125 6.390625 43.28125 13.890625 
Q 47.125 21.390625 47.125 36.375 
Q 47.125 51.421875 43.28125 58.90625 
Q 39.453125 66.40625 31.78125 66.40625 
z
M 31.78125 74.21875 
Q 44.046875 74.21875 50.515625 64.515625 
Q 56.984375 54.828125 56.984375 36.375 
Q 56.984375 17.96875 50.515625 8.265625 
Q 44.046875 -1.421875 31.78125 -1.421875 
Q 19.53125 -1.421875 13.0625 8.265625 
Q 6.59375 17.96875 6.59375 36.375 
Q 6.59375 54.828125 13.0625 64.515625 
Q 19.53125 74.21875 31.78125 74.21875 
z
" id="DejaVuSans-48"/>
     <path d="M 10.796875 72.90625 
L 49.515625 72.90625 
L 49.515625 64.59375 
L 19.828125 64.59375 
L 19.828125 46.734375 
Q 21.96875 47.46875 24.109375 47.828125 
Q 26.265625 48.1875 28.421875 48.1875 
Q 40.625 48.1875 47.75 41.5 
Q 54.890625 34.8125 54.890625 23.390625 
Q 54.890625 11.625 47.5625 5.09375 
Q 40.234375 -1.421875 26.90625 -1.421875 
Q 22.3125 -1.421875 17.546875 -0.640625 
Q 12.796875 0.140625 7.71875 1.703125 
L 7.71875 11.625 
Q 12.109375 9.234375 16.796875 8.0625 
Q 21.484375 6.890625 26.703125 6.890625 
Q 35.15625 6.890625 40.078125 11.328125 
Q 45.015625 15.765625 45.015625 23.390625 
Q 45.015625 31 40.078125 35.4375 
Q 35.15625 39.890625 26.703125 39.890625 
Q 22.75 39.890625 18.8125 39.015625 
Q 14.890625 38.140625 10.796875 36.28125 
z
" id="DejaVuSans-53"/>
     <path d="M 31.78125 34.625 
Q 24.75 34.625 20.71875 30.859375 
Q 16.703125 27.09375 16.703125 20.515625 
Q 16.703125 13.921875 20.71875 10.15625 
Q 24.75 6.390625 31.78125 6.390625 
Q 38.8125 6.390625 42.859375 10.171875 
Q 46.921875 13.96875 46.921875 20.515625 
Q 46.921875 27.09375 42.890625 30.859375 
Q 38.875 34.625 31.78125 34.625 
z
M 21.921875 38.8125 
Q 15.578125 40.375 12.03125 44.71875 
Q 8.5 49.078125 8.5 55.328125 
Q 8.5 64.0625 14.71875 69.140625 
Q 20.953125 74.21875 31.78125 74.21875 
Q 42.671875 74.21875 48.875 69.140625 
Q 55.078125 64.0625 55.078125 55.328125 
Q 55.078125 49.078125 51.53125 44.71875 
Q 48 40.375 41.703125 38.8125 
Q 48.828125 37.15625 52.796875 32.3125 
Q 56.78125 27.484375 56.78125 20.515625 
Q 56.78125 9.90625 50.3125 4.234375 
Q 43.84375 -1.421875 31.78125 -1.421875 
Q 19.734375 -1.421875 13.25 4.234375 
Q 6.78125 9.90625 6.78125 20.515625 
Q 6.78125 27.484375 10.78125 32.3125 
Q 14.796875 37.15625 21.921875 38.8125 
z
M 18.3125 54.390625 
Q 18.3125 48.734375 21.84375 45.5625 
Q 25.390625 42.390625 31.78125 42.390625 
Q 38.140625 42.390625 41.71875 45.5625 
Q 45.3125 48.734375 45.3125 54.390625 
Q 45.3125 60.0625 41.71875 63.234375 
Q 38.140625 66.40625 31.78125 66.40625 
Q 25.390625 66.40625 21.84375 63.234375 
Q 18.3125 60.0625 18.3125 54.390625 
z
" id="DejaVuSans-56"/>
    </defs>
    <g style="fill:#0000ff;" transform="translate(198.425197 263.622047)scale(0.18 -0.18)">
     <use xlink:href="#DejaVuSans-48"/>
     <use x="63.623047" xlink:href="#DejaVuSans-53"/>
     <use x="127.246094" xlink:href="#DejaVuSans-56"/>
    </g>
   </g>
  </g>
 </g>
 <defs>
  <clipPath id="p9d9e5a87ad">
   <rect height="283.464567" width="1162.204724" x="28.346457" y="28.346457"/>
  </clipPath>
 </defs>
</svg>
