<?xml version="1.0" encoding="utf-8" standalone="no"?>
<!DOCTYPE svg PUBLIC "-//W3C//DTD SVG 1.1//EN"
  "http://www.w3.org/Graphics/SVG/1.1/DTD/svg11.dtd">
<!-- Created with matplotlib (https://matplotlib.org/) -->
<svg height="907.086614pt" version="1.1" viewBox="0 0 1332.283465 907.086614" width="1332.283465pt" xmlns="http://www.w3.org/2000/svg" xmlns:xlink="http://www.w3.org/1999/xlink">
 <defs>
  <style type="text/css">
*{stroke-linecap:butt;stroke-linejoin:round;}
  </style>
 </defs>
 <g id="figure_1">
  <g id="patch_1">
   <path d="M 0 907.086614 
L 1332.283465 907.086614 
L 1332.283465 0 
L 0 0 
z
" style="fill:#ffffff;"/>
  </g>
  <g id="axes_1">
   <g id="line2d_1">
    <path clip-path="url(#pc6c686953c)" d="M 358.582677 864.566929 
L 358.582677 841.889764 
L 350.07874 841.889764 
L 350.07874 864.566929 
L 42.519685 864.566929 
L 42.519685 807.874016 
L 42.519685 807.874016 
L 104.88189 807.874016 
L 110.551181 801.779528 
L 116.220472 799.908661 
L 121.889764 799.823622 
L 127.559055 798.689764 
L 133.228346 796.875591 
L 138.897638 795.401575 
L 144.566929 792.935433 
L 150.23622 792.170079 
L 155.905512 790.412598 
L 161.574803 788.258268 
L 167.244094 784.289764 
L 172.913386 781.313386 
L 178.582677 780.888189 
L 184.251969 780.292913 
L 189.92126 780.292913 
L 195.590551 778.280315 
L 201.259843 774.651969 
L 206.929134 771.448819 
L 212.598425 770.088189 
L 218.267717 769.067717 
L 223.937008 770.088189 
L 235.275591 768.415748 
L 240.944882 765.155906 
L 246.614173 761.697638 
L 252.283465 760.875591 
L 257.952756 758.069291 
L 263.622047 759.146457 
L 269.291339 757.530709 
L 274.96063 758.097638 
L 280.629921 757.672441 
L 286.299213 753.732283 
L 291.968504 753.647244 
L 297.637795 754.525984 
L 303.307087 753.76063 
L 308.976378 753.392126 
L 314.645669 752.711811 
L 320.314961 750.359055 
L 325.984252 748.856693 
L 331.653543 746.872441 
L 337.322835 746.532283 
L 342.992126 745.086614 
L 348.661417 744.80315 
L 354.330709 744.661417 
L 360 746.418898 
L 371.338583 746.929134 
L 382.677165 746.588976 
L 388.346457 746.532283 
L 394.015748 748.743307 
L 399.685039 747.864567 
L 405.354331 749.508661 
L 428.031496 755.60315 
L 433.700787 757.955906 
L 439.370079 760.705512 
L 445.03937 762.944882 
L 450.708661 764.022047 
L 456.377953 765.779528 
L 462.047244 766.828346 
L 467.716535 767.168504 
L 473.385827 769.577953 
L 479.055118 771.845669 
L 484.724409 773.291339 
L 490.393701 773.60315 
L 496.062992 772.979528 
L 501.732283 774.538583 
L 507.401575 776.976378 
L 518.740157 782.135433 
L 524.409449 783.666142 
L 530.07874 783.43937 
L 535.748031 784.289764 
L 541.417323 782.844094 
L 547.086614 782.107087 
L 552.755906 783.552756 
L 558.425197 785.990551 
L 564.094488 787.52126 
L 569.76378 789.902362 
L 575.433071 792 
L 581.102362 794.664567 
L 586.771654 795.174803 
L 592.440945 793.927559 
L 598.110236 791.489764 
L 603.779528 789.902362 
L 609.448819 787.577953 
L 615.11811 784.544882 
L 620.787402 783.467717 
L 626.456693 785.225197 
L 632.125984 787.294488 
L 637.795276 787.577953 
L 643.464567 788.768504 
L 649.133858 789.222047 
L 654.80315 787.492913 
L 660.472441 788.570079 
L 666.141732 790.015748 
L 671.811024 792.113386 
L 677.480315 793.190551 
L 683.149606 794.806299 
L 688.818898 796.195276 
L 694.488189 796.705512 
L 700.15748 798.831496 
L 705.826772 800.645669 
L 711.496063 801.269291 
L 717.165354 801.467717 
L 722.834646 800.305512 
L 728.503937 800.333858 
L 734.173228 800.730709 
L 739.84252 799.2 
L 745.511811 797.414173 
L 751.181102 796.56378 
L 756.850394 797.187402 
L 762.519685 798.406299 
L 768.188976 799.370079 
L 773.858268 800.447244 
L 790.866142 804.075591 
L 796.535433 807.874016 
L 1119.685039 807.874016 
L 1125.354331 804.614173 
L 1131.023622 804.55748 
L 1136.692913 804.784252 
L 1142.362205 807.874016 
L 1148.031496 807.874016 
L 1148.031496 807.874016 
L 1148.031496 864.566929 
L 868.818898 864.566929 
L 868.818898 841.889764 
L 860.314961 841.889764 
L 860.314961 864.566929 
L 358.582677 864.566929 
L 358.582677 864.566929 
" style="fill:none;stroke:#ff0000;stroke-linecap:round;stroke-width:0.8;"/>
   </g>
   <g id="line2d_2">
    <path clip-path="url(#pc6c686953c)" d="M 358.582677 730.488189 
L 358.582677 707.811024 
L 350.07874 707.811024 
L 350.07874 730.488189 
L 42.519685 730.488189 
L 42.519685 673.795276 
L 42.519685 673.795276 
L 104.88189 673.795276 
L 110.551181 669.344882 
L 116.220472 666.311811 
L 121.889764 665.858268 
L 127.559055 664.582677 
L 133.228346 663.023622 
L 138.897638 661.662992 
L 144.566929 659.055118 
L 150.23622 658.289764 
L 155.905512 656.588976 
L 161.574803 653.896063 
L 167.244094 650.437795 
L 172.913386 648.822047 
L 178.582677 646.327559 
L 184.251969 646.866142 
L 189.92126 646.752756 
L 195.590551 644.88189 
L 201.259843 642.500787 
L 212.598425 637.341732 
L 218.267717 637.143307 
L 223.937008 635.867717 
L 229.606299 635.952756 
L 235.275591 635.35748 
L 240.944882 632.296063 
L 246.614173 628.809449 
L 252.283465 626.995276 
L 257.952756 625.379528 
L 263.622047 623.593701 
L 269.291339 622.119685 
L 274.96063 623.111811 
L 280.629921 623.451969 
L 286.299213 619.256693 
L 291.968504 620.192126 
L 297.637795 620.333858 
L 303.307087 620.305512 
L 308.976378 619.058268 
L 314.645669 618.23622 
L 320.314961 618.179528 
L 325.984252 615.713386 
L 331.653543 612.566929 
L 337.322835 611.688189 
L 342.992126 611.886614 
L 348.661417 610.611024 
L 354.330709 611.007874 
L 360 612.793701 
L 365.669291 614.437795 
L 371.338583 613.445669 
L 377.007874 613.388976 
L 382.677165 613.785827 
L 388.346457 614.834646 
L 394.015748 612.96378 
L 399.685039 613.785827 
L 405.354331 615.883465 
L 411.023622 617.102362 
L 416.692913 618.462992 
L 422.362205 620.050394 
L 428.031496 621.43937 
L 439.370079 625.861417 
L 445.03937 628.185827 
L 450.708661 631.133858 
L 456.377953 633.883465 
L 467.716535 636.831496 
L 473.385827 636.491339 
L 479.055118 637.823622 
L 484.724409 640.374803 
L 490.393701 642.500787 
L 496.062992 641.508661 
L 501.732283 641.28189 
L 507.401575 642.103937 
L 513.070866 644.513386 
L 524.409449 648.793701 
L 530.07874 648.056693 
L 535.748031 649.927559 
L 541.417323 650.522835 
L 547.086614 650.409449 
L 552.755906 649.332283 
L 569.76378 654.973228 
L 575.433071 657.43937 
L 581.102362 658.601575 
L 586.771654 660.869291 
L 592.440945 661.407874 
L 598.110236 659.395276 
L 609.448819 654.377953 
L 615.11811 652.592126 
L 620.787402 650.664567 
L 626.456693 651.20315 
L 632.125984 652.648819 
L 637.795276 654.973228 
L 643.464567 655.908661 
L 649.133858 657.070866 
L 654.80315 656.503937 
L 660.472441 655.313386 
L 666.141732 655.766929 
L 671.811024 657.637795 
L 683.149606 661.662992 
L 688.818898 663.307087 
L 694.488189 664.611024 
L 705.826772 666.822047 
L 711.496063 667.672441 
L 717.165354 667.388976 
L 722.834646 667.474016 
L 728.503937 667.672441 
L 734.173228 667.36063 
L 739.84252 666.425197 
L 745.511811 664.809449 
L 751.181102 664.781102 
L 756.850394 664.299213 
L 762.519685 663.448819 
L 768.188976 664.611024 
L 773.858268 666.085039 
L 785.19685 669.344882 
L 790.866142 669.770079 
L 796.535433 670.818898 
L 802.204724 673.795276 
L 1148.031496 673.795276 
L 1148.031496 673.795276 
L 1148.031496 730.488189 
L 868.818898 730.488189 
L 868.818898 707.811024 
L 860.314961 707.811024 
L 860.314961 730.488189 
L 358.582677 730.488189 
L 358.582677 730.488189 
" style="fill:none;stroke:#ff0000;stroke-linecap:round;stroke-width:0.8;"/>
   </g>
   <g id="line2d_3">
    <path clip-path="url(#pc6c686953c)" d="M 358.582677 596.437795 
L 358.582677 573.76063 
L 350.07874 573.76063 
L 350.07874 596.437795 
L 42.519685 596.437795 
L 42.519685 539.744882 
L 42.519685 539.744882 
L 104.88189 539.744882 
L 110.551181 533.225197 
L 116.220472 532.913386 
L 121.889764 532.488189 
L 127.559055 531.637795 
L 133.228346 530.362205 
L 138.897638 528.037795 
L 144.566929 525.401575 
L 150.23622 524.097638 
L 161.574803 519.392126 
L 167.244094 516.274016 
L 172.913386 515.310236 
L 178.582677 513.552756 
L 189.92126 512.872441 
L 195.590551 511.68189 
L 201.259843 509.669291 
L 206.929134 508.223622 
L 212.598425 506.069291 
L 218.267717 504.226772 
L 229.606299 502.837795 
L 235.275591 501.845669 
L 240.944882 499.43622 
L 252.283465 491.896063 
L 257.952756 492.32126 
L 263.622047 491.300787 
L 269.291339 489.146457 
L 274.96063 487.984252 
L 280.629921 489.514961 
L 286.299213 487.190551 
L 291.968504 485.631496 
L 297.637795 486.198425 
L 303.307087 486.907087 
L 308.976378 486.226772 
L 314.645669 485.376378 
L 320.314961 484.724409 
L 325.984252 483.930709 
L 331.653543 480.018898 
L 337.322835 477.240945 
L 342.992126 477.581102 
L 348.661417 477.354331 
L 354.330709 477.892913 
L 360 475.738583 
L 365.669291 477.524409 
L 371.338583 479.111811 
L 377.007874 478.856693 
L 382.677165 478.233071 
L 388.346457 479.735433 
L 394.015748 480.274016 
L 399.685039 480.103937 
L 405.354331 480.954331 
L 411.023622 482.88189 
L 416.692913 485.149606 
L 422.362205 486.907087 
L 428.031496 488.948031 
L 433.700787 490.422047 
L 439.370079 493.001575 
L 445.03937 494.759055 
L 450.708661 496.885039 
L 456.377953 499.833071 
L 462.047244 503.291339 
L 467.716535 504.368504 
L 473.385827 505.75748 
L 479.055118 505.870866 
L 484.724409 507.571654 
L 490.393701 510.264567 
L 496.062992 510.774803 
L 501.732283 510.32126 
L 507.401575 510.462992 
L 513.070866 509.584252 
L 518.740157 511.68189 
L 524.409449 512.759055 
L 530.07874 514.374803 
L 535.748031 514.8 
L 541.417323 514.062992 
L 547.086614 515.820472 
L 552.755906 516.387402 
L 558.425197 517.974803 
L 564.094488 519.732283 
L 569.76378 522.085039 
L 575.433071 522.595276 
L 581.102362 524.437795 
L 586.771654 527.244094 
L 592.440945 527.725984 
L 598.110236 526.592126 
L 603.779528 524.948031 
L 609.448819 522.510236 
L 615.11811 520.469291 
L 620.787402 517.861417 
L 626.456693 519.108661 
L 632.125984 519.76063 
L 643.464567 523.417323 
L 649.133858 524.324409 
L 654.80315 524.948031 
L 660.472441 523.984252 
L 666.141732 523.133858 
L 671.811024 523.502362 
L 677.480315 524.834646 
L 694.488189 531.155906 
L 700.15748 532.714961 
L 705.826772 532.970079 
L 711.496063 533.537008 
L 717.165354 534.302362 
L 722.834646 533.168504 
L 728.503937 533.508661 
L 734.173228 533.67874 
L 739.84252 533.735433 
L 745.511811 532.374803 
L 751.181102 532.743307 
L 756.850394 532.941732 
L 762.519685 531.127559 
L 768.188976 530.674016 
L 773.858268 532.034646 
L 779.527559 535.861417 
L 785.19685 536.343307 
L 790.866142 539.744882 
L 1148.031496 539.744882 
L 1148.031496 539.744882 
L 1148.031496 596.437795 
L 868.818898 596.437795 
L 868.818898 573.76063 
L 860.314961 573.76063 
L 860.314961 596.437795 
L 358.582677 596.437795 
L 358.582677 596.437795 
" style="fill:none;stroke:#ff0000;stroke-linecap:round;stroke-width:0.8;"/>
   </g>
   <g id="line2d_4">
    <path clip-path="url(#pc6c686953c)" d="M 358.582677 461.565354 
L 358.582677 438.888189 
L 350.07874 438.888189 
L 350.07874 461.565354 
L 42.519685 461.565354 
L 42.519685 404.872441 
L 42.519685 404.872441 
L 104.88189 404.872441 
L 110.551181 401.130709 
L 116.220472 399.11811 
L 121.889764 398.069291 
L 133.228346 393.505512 
L 138.897638 391.719685 
L 144.566929 390.812598 
L 150.23622 390.132283 
L 155.905512 387.240945 
L 161.574803 385.483465 
L 167.244094 381.543307 
L 172.913386 380.381102 
L 178.582677 380.040945 
L 184.251969 378.141732 
L 195.590551 375.902362 
L 206.929134 372.529134 
L 212.598425 371.877165 
L 218.267717 370.885039 
L 223.937008 368.418898 
L 235.275591 366.576378 
L 240.944882 365.272441 
L 252.283465 358.724409 
L 257.952756 355.833071 
L 263.622047 357.36378 
L 269.291339 354.670866 
L 274.96063 353.19685 
L 280.629921 352.40315 
L 286.299213 355.209449 
L 291.968504 351.666142 
L 297.637795 351.269291 
L 303.307087 352.289764 
L 308.976378 351.524409 
L 314.645669 351.212598 
L 320.314961 349.710236 
L 325.984252 349.114961 
L 331.653543 347.017323 
L 337.322835 344.409449 
L 348.661417 340.100787 
L 354.330709 338.598425 
L 360 340.440945 
L 365.669291 340.866142 
L 371.338583 342.085039 
L 377.007874 344.692913 
L 382.677165 344.182677 
L 388.346457 345.628346 
L 394.015748 346.422047 
L 399.685039 346.677165 
L 405.354331 346.733858 
L 411.023622 348.491339 
L 416.692913 350.447244 
L 422.362205 352.771654 
L 428.031496 354.784252 
L 433.700787 356.598425 
L 439.370079 358.582677 
L 445.03937 361.332283 
L 450.708661 363.033071 
L 456.377953 365.187402 
L 462.047244 368.730709 
L 467.716535 371.055118 
L 473.385827 372.529134 
L 479.055118 373.096063 
L 484.724409 373.776378 
L 490.393701 374.88189 
L 496.062992 377.659843 
L 501.732283 378.340157 
L 507.401575 378.170079 
L 513.070866 376.866142 
L 518.740157 376.384252 
L 524.409449 377.206299 
L 530.07874 378.595276 
L 541.417323 380.23937 
L 547.086614 381.656693 
L 552.755906 381.288189 
L 558.425197 383.44252 
L 564.094488 384.661417 
L 569.76378 386.220472 
L 575.433071 387.977953 
L 581.102362 389.366929 
L 586.771654 391.492913 
L 592.440945 393.023622 
L 598.110236 393.27874 
L 603.779528 391.889764 
L 609.448819 389.650394 
L 615.11811 386.730709 
L 620.787402 384.406299 
L 626.456693 385.653543 
L 637.795276 386.929134 
L 643.464567 388.941732 
L 649.133858 390.755906 
L 654.80315 392.910236 
L 660.472441 391.662992 
L 666.141732 390.812598 
L 671.811024 390.64252 
L 677.480315 390.699213 
L 688.818898 393.902362 
L 694.488189 396.113386 
L 700.15748 397.417323 
L 705.826772 398.012598 
L 711.496063 398.182677 
L 717.165354 399.543307 
L 728.503937 398.692913 
L 734.173228 399.061417 
L 739.84252 399.288189 
L 745.511811 398.976378 
L 751.181102 399.458268 
L 762.519685 399.486614 
L 768.188976 397.672441 
L 773.858268 400.56378 
L 785.19685 400.818898 
L 790.866142 401.187402 
L 802.204724 401.35748 
L 807.874016 404.872441 
L 813.543307 401.952756 
L 824.88189 402.009449 
L 830.551181 404.872441 
L 836.220472 401.981102 
L 841.889764 404.872441 
L 1148.031496 404.872441 
L 1148.031496 404.872441 
L 1148.031496 461.565354 
L 868.818898 461.565354 
L 868.818898 438.888189 
L 860.314961 438.888189 
L 860.314961 461.565354 
L 358.582677 461.565354 
L 358.582677 461.565354 
" style="fill:none;stroke:#ff0000;stroke-linecap:round;stroke-width:0.8;"/>
   </g>
   <g id="line2d_5">
    <path clip-path="url(#pc6c686953c)" d="M 358.582677 324.425197 
L 358.582677 301.748031 
L 350.07874 301.748031 
L 350.07874 324.425197 
L 42.519685 324.425197 
L 42.519685 267.732283 
L 42.519685 267.732283 
L 110.551181 267.732283 
L 116.220472 264.16063 
L 121.889764 260.985827 
L 127.559055 257.499213 
L 133.228346 255.20315 
L 138.897638 254.324409 
L 144.566929 252.708661 
L 155.905512 249.647244 
L 161.574803 248.655118 
L 172.913386 242.588976 
L 178.582677 242.503937 
L 189.92126 240.179528 
L 195.590551 238.507087 
L 201.259843 235.247244 
L 206.929134 234.708661 
L 212.598425 234.453543 
L 218.267717 233.744882 
L 223.937008 232.299213 
L 229.606299 231.222047 
L 235.275591 228.64252 
L 240.944882 227.905512 
L 246.614173 225.411024 
L 252.283465 223.568504 
L 257.952756 221.102362 
L 263.622047 219.174803 
L 269.291339 219.713386 
L 274.96063 217.332283 
L 280.629921 216.39685 
L 291.968504 217.955906 
L 297.637795 214.894488 
L 308.976378 215.489764 
L 314.645669 215.092913 
L 320.314961 213.703937 
L 325.984252 213.137008 
L 331.653543 210.64252 
L 337.322835 207.779528 
L 342.992126 206.050394 
L 348.661417 204.548031 
L 354.330709 202.195276 
L 360 202.56378 
L 371.338583 204.944882 
L 382.677165 208.771654 
L 388.346457 209.28189 
L 394.015748 210.047244 
L 405.354331 210.982677 
L 411.023622 212.343307 
L 416.692913 213.874016 
L 422.362205 216 
L 428.031496 218.324409 
L 439.370079 223.370079 
L 445.03937 224.617323 
L 450.708661 227.792126 
L 456.377953 228.500787 
L 462.047244 231.675591 
L 467.716535 233.433071 
L 473.385827 236.664567 
L 479.055118 238.308661 
L 484.724409 238.677165 
L 490.393701 240.122835 
L 496.062992 240.80315 
L 501.732283 240.916535 
L 507.401575 243.269291 
L 518.740157 241.653543 
L 524.409449 242.277165 
L 530.07874 240.576378 
L 541.417323 243.184252 
L 547.086614 244.431496 
L 558.425197 246.075591 
L 564.094488 246.415748 
L 569.76378 247.492913 
L 575.433071 248.79685 
L 586.771654 253.587402 
L 592.440945 255.259843 
L 598.110236 255.99685 
L 603.779528 256.251969 
L 609.448819 253.984252 
L 615.11811 251.404724 
L 620.787402 249.250394 
L 626.456693 248.655118 
L 632.125984 251.03622 
L 637.795276 252.311811 
L 643.464567 252.992126 
L 649.133858 254.352756 
L 654.80315 256.705512 
L 660.472441 256.620472 
L 666.141732 255.628346 
L 671.811024 256.450394 
L 677.480315 255.911811 
L 683.149606 256.790551 
L 688.818898 258.349606 
L 694.488189 258.973228 
L 700.15748 260.475591 
L 705.826772 261.609449 
L 711.496063 262.091339 
L 717.165354 261.43937 
L 722.834646 262.714961 
L 728.503937 262.204724 
L 734.173228 261.977953 
L 739.84252 262.233071 
L 751.181102 262.488189 
L 756.850394 263.480315 
L 762.519685 263.111811 
L 768.188976 263.083465 
L 779.527559 263.253543 
L 785.19685 263.707087 
L 790.866142 262.998425 
L 796.535433 262.771654 
L 802.204724 264.444094 
L 807.874016 264.784252 
L 819.212598 264.840945 
L 824.88189 267.732283 
L 830.551181 267.732283 
L 836.220472 264.727559 
L 853.228346 264.812598 
L 858.897638 267.732283 
L 1148.031496 267.732283 
L 1148.031496 267.732283 
L 1148.031496 324.425197 
L 868.818898 324.425197 
L 868.818898 301.748031 
L 860.314961 301.748031 
L 860.314961 324.425197 
L 358.582677 324.425197 
L 358.582677 324.425197 
" style="fill:none;stroke:#ff0000;stroke-linecap:round;stroke-width:0.8;"/>
   </g>
   <g id="line2d_6">
    <path clip-path="url(#pc6c686953c)" d="M 358.582677 188.022047 
L 358.582677 165.344882 
L 350.07874 165.344882 
L 350.07874 188.022047 
L 42.519685 188.022047 
L 42.519685 131.329134 
L 42.519685 131.329134 
L 116.220472 131.329134 
L 121.889764 123.959055 
L 127.559055 120.075591 
L 133.228346 118.431496 
L 138.897638 116.95748 
L 144.566929 115.625197 
L 150.23622 112.733858 
L 155.905512 112.280315 
L 161.574803 112.223622 
L 167.244094 110.182677 
L 172.913386 107.744882 
L 178.582677 107.12126 
L 184.251969 105.108661 
L 189.92126 104.4 
L 195.590551 101.537008 
L 201.259843 99.382677 
L 206.929134 98.985827 
L 212.598425 98.248819 
L 218.267717 97.341732 
L 223.937008 96.179528 
L 229.606299 94.535433 
L 235.275591 93.174803 
L 246.614173 90.765354 
L 252.283465 87.533858 
L 257.952756 86.655118 
L 263.622047 83.735433 
L 269.291339 81.637795 
L 274.96063 79.965354 
L 280.629921 80.900787 
L 286.299213 80.674016 
L 291.968504 81.864567 
L 297.637795 80.872441 
L 303.307087 80.447244 
L 308.976378 79.341732 
L 314.645669 78.576378 
L 320.314961 78.122835 
L 325.984252 78.009449 
L 331.653543 77.584252 
L 337.322835 73.247244 
L 342.992126 71.858268 
L 348.661417 68.768504 
L 354.330709 66.55748 
L 360 67.379528 
L 365.669291 67.776378 
L 371.338583 68.995276 
L 377.007874 70.582677 
L 382.677165 71.659843 
L 388.346457 73.133858 
L 394.015748 74.352756 
L 399.685039 75.033071 
L 405.354331 75.344882 
L 411.023622 76.195276 
L 416.692913 77.555906 
L 422.362205 79.455118 
L 428.031496 81.807874 
L 433.700787 84.444094 
L 439.370079 87.448819 
L 445.03937 90.96378 
L 450.708661 94.053543 
L 456.377953 95.697638 
L 462.047244 96.944882 
L 467.716535 99.155906 
L 473.385827 98.872441 
L 479.055118 100.346457 
L 484.724409 100.885039 
L 490.393701 101.310236 
L 496.062992 102.302362 
L 501.732283 104.286614 
L 513.070866 107.688189 
L 518.740157 108 
L 524.409449 107.12126 
L 530.07874 104.343307 
L 535.748031 105.420472 
L 547.086614 110.211024 
L 552.755906 110.806299 
L 558.425197 110.63622 
L 564.094488 109.445669 
L 569.76378 110.777953 
L 575.433071 112.308661 
L 581.102362 115.114961 
L 586.771654 116.759055 
L 592.440945 117.722835 
L 598.110236 118.261417 
L 603.779528 120.670866 
L 609.448819 118.544882 
L 620.787402 115.086614 
L 626.456693 113.499213 
L 632.125984 115.228346 
L 637.795276 117.382677 
L 643.464567 119.253543 
L 649.133858 118.261417 
L 654.80315 119.083465 
L 660.472441 121.011024 
L 666.141732 121.407874 
L 671.811024 122.485039 
L 677.480315 122.201575 
L 683.149606 122.938583 
L 688.818898 124.072441 
L 694.488189 124.497638 
L 700.15748 124.554331 
L 705.826772 124.100787 
L 711.496063 124.469291 
L 722.834646 124.951181 
L 728.503937 125.461417 
L 734.173228 125.348031 
L 739.84252 125.631496 
L 745.511811 126.595276 
L 751.181102 126.056693 
L 756.850394 126.87874 
L 762.519685 126.340157 
L 768.188976 126.368504 
L 773.858268 126.708661 
L 779.527559 126.368504 
L 785.19685 124.015748 
L 790.866142 123.845669 
L 802.204724 127.700787 
L 807.874016 127.814173 
L 813.543307 131.329134 
L 819.212598 131.329134 
L 824.88189 128.437795 
L 830.551181 128.324409 
L 853.228346 128.267717 
L 858.897638 128.494488 
L 864.566929 131.329134 
L 1148.031496 131.329134 
L 1148.031496 131.329134 
L 1148.031496 188.022047 
L 868.818898 188.022047 
L 868.818898 165.344882 
L 860.314961 165.344882 
L 860.314961 188.022047 
L 358.582677 188.022047 
L 358.582677 188.022047 
" style="fill:none;stroke:#ff0000;stroke-linecap:round;stroke-width:0.8;"/>
   </g>
   <g id="text_1">
    <!-- 241 -->
    <defs>
     <path d="M 19.1875 8.296875 
L 53.609375 8.296875 
L 53.609375 0 
L 7.328125 0 
L 7.328125 8.296875 
Q 12.9375 14.109375 22.625 23.890625 
Q 32.328125 33.6875 34.8125 36.53125 
Q 39.546875 41.84375 41.421875 45.53125 
Q 43.3125 49.21875 43.3125 52.78125 
Q 43.3125 58.59375 39.234375 62.25 
Q 35.15625 65.921875 28.609375 65.921875 
Q 23.96875 65.921875 18.8125 64.3125 
Q 13.671875 62.703125 7.8125 59.421875 
L 7.8125 69.390625 
Q 13.765625 71.78125 18.9375 73 
Q 24.125 74.21875 28.421875 74.21875 
Q 39.75 74.21875 46.484375 68.546875 
Q 53.21875 62.890625 53.21875 53.421875 
Q 53.21875 48.921875 51.53125 44.890625 
Q 49.859375 40.875 45.40625 35.40625 
Q 44.1875 33.984375 37.640625 27.21875 
Q 31.109375 20.453125 19.1875 8.296875 
z
" id="DejaVuSans-50"/>
     <path d="M 37.796875 64.3125 
L 12.890625 25.390625 
L 37.796875 25.390625 
z
M 35.203125 72.90625 
L 47.609375 72.90625 
L 47.609375 25.390625 
L 58.015625 25.390625 
L 58.015625 17.1875 
L 47.609375 17.1875 
L 47.609375 0 
L 37.796875 0 
L 37.796875 17.1875 
L 4.890625 17.1875 
L 4.890625 26.703125 
z
" id="DejaVuSans-52"/>
     <path d="M 12.40625 8.296875 
L 28.515625 8.296875 
L 28.515625 63.921875 
L 10.984375 60.40625 
L 10.984375 69.390625 
L 28.421875 72.90625 
L 38.28125 72.90625 
L 38.28125 8.296875 
L 54.390625 8.296875 
L 54.390625 0 
L 12.40625 0 
z
" id="DejaVuSans-49"/>
    </defs>
    <g style="fill:#0000ff;" transform="translate(184.251969 844.724409)scale(0.18 -0.18)">
     <use xlink:href="#DejaVuSans-50"/>
     <use x="63.623047" xlink:href="#DejaVuSans-52"/>
     <use x="127.246094" xlink:href="#DejaVuSans-49"/>
    </g>
   </g>
   <g id="text_2">
    <!-- 242 -->
    <g style="fill:#0000ff;" transform="translate(184.251969 710.645669)scale(0.18 -0.18)">
     <use xlink:href="#DejaVuSans-50"/>
     <use x="63.623047" xlink:href="#DejaVuSans-52"/>
     <use x="127.246094" xlink:href="#DejaVuSans-50"/>
    </g>
   </g>
   <g id="text_3">
    <!-- 243 -->
    <defs>
     <path d="M 40.578125 39.3125 
Q 47.65625 37.796875 51.625 33 
Q 55.609375 28.21875 55.609375 21.1875 
Q 55.609375 10.40625 48.1875 4.484375 
Q 40.765625 -1.421875 27.09375 -1.421875 
Q 22.515625 -1.421875 17.65625 -0.515625 
Q 12.796875 0.390625 7.625 2.203125 
L 7.625 11.71875 
Q 11.71875 9.328125 16.59375 8.109375 
Q 21.484375 6.890625 26.8125 6.890625 
Q 36.078125 6.890625 40.9375 10.546875 
Q 45.796875 14.203125 45.796875 21.1875 
Q 45.796875 27.640625 41.28125 31.265625 
Q 36.765625 34.90625 28.71875 34.90625 
L 20.21875 34.90625 
L 20.21875 43.015625 
L 29.109375 43.015625 
Q 36.375 43.015625 40.234375 45.921875 
Q 44.09375 48.828125 44.09375 54.296875 
Q 44.09375 59.90625 40.109375 62.90625 
Q 36.140625 65.921875 28.71875 65.921875 
Q 24.65625 65.921875 20.015625 65.03125 
Q 15.375 64.15625 9.8125 62.3125 
L 9.8125 71.09375 
Q 15.4375 72.65625 20.34375 73.4375 
Q 25.25 74.21875 29.59375 74.21875 
Q 40.828125 74.21875 47.359375 69.109375 
Q 53.90625 64.015625 53.90625 55.328125 
Q 53.90625 49.265625 50.4375 45.09375 
Q 46.96875 40.921875 40.578125 39.3125 
z
" id="DejaVuSans-51"/>
    </defs>
    <g style="fill:#0000ff;" transform="translate(184.251969 576.595276)scale(0.18 -0.18)">
     <use xlink:href="#DejaVuSans-50"/>
     <use x="63.623047" xlink:href="#DejaVuSans-52"/>
     <use x="127.246094" xlink:href="#DejaVuSans-51"/>
    </g>
   </g>
   <g id="text_4">
    <!-- 244 -->
    <g style="fill:#0000ff;" transform="translate(184.251969 441.722835)scale(0.18 -0.18)">
     <use xlink:href="#DejaVuSans-50"/>
     <use x="63.623047" xlink:href="#DejaVuSans-52"/>
     <use x="127.246094" xlink:href="#DejaVuSans-52"/>
    </g>
   </g>
   <g id="text_5">
    <!-- 245 -->
    <defs>
     <path d="M 10.796875 72.90625 
L 49.515625 72.90625 
L 49.515625 64.59375 
L 19.828125 64.59375 
L 19.828125 46.734375 
Q 21.96875 47.46875 24.109375 47.828125 
Q 26.265625 48.1875 28.421875 48.1875 
Q 40.625 48.1875 47.75 41.5 
Q 54.890625 34.8125 54.890625 23.390625 
Q 54.890625 11.625 47.5625 5.09375 
Q 40.234375 -1.421875 26.90625 -1.421875 
Q 22.3125 -1.421875 17.546875 -0.640625 
Q 12.796875 0.140625 7.71875 1.703125 
L 7.71875 11.625 
Q 12.109375 9.234375 16.796875 8.0625 
Q 21.484375 6.890625 26.703125 6.890625 
Q 35.15625 6.890625 40.078125 11.328125 
Q 45.015625 15.765625 45.015625 23.390625 
Q 45.015625 31 40.078125 35.4375 
Q 35.15625 39.890625 26.703125 39.890625 
Q 22.75 39.890625 18.8125 39.015625 
Q 14.890625 38.140625 10.796875 36.28125 
z
" id="DejaVuSans-53"/>
    </defs>
    <g style="fill:#0000ff;" transform="translate(184.251969 304.582677)scale(0.18 -0.18)">
     <use xlink:href="#DejaVuSans-50"/>
     <use x="63.623047" xlink:href="#DejaVuSans-52"/>
     <use x="127.246094" xlink:href="#DejaVuSans-53"/>
    </g>
   </g>
   <g id="text_6">
    <!-- 246 -->
    <defs>
     <path d="M 33.015625 40.375 
Q 26.375 40.375 22.484375 35.828125 
Q 18.609375 31.296875 18.609375 23.390625 
Q 18.609375 15.53125 22.484375 10.953125 
Q 26.375 6.390625 33.015625 6.390625 
Q 39.65625 6.390625 43.53125 10.953125 
Q 47.40625 15.53125 47.40625 23.390625 
Q 47.40625 31.296875 43.53125 35.828125 
Q 39.65625 40.375 33.015625 40.375 
z
M 52.59375 71.296875 
L 52.59375 62.3125 
Q 48.875 64.0625 45.09375 64.984375 
Q 41.3125 65.921875 37.59375 65.921875 
Q 27.828125 65.921875 22.671875 59.328125 
Q 17.53125 52.734375 16.796875 39.40625 
Q 19.671875 43.65625 24.015625 45.921875 
Q 28.375 48.1875 33.59375 48.1875 
Q 44.578125 48.1875 50.953125 41.515625 
Q 57.328125 34.859375 57.328125 23.390625 
Q 57.328125 12.15625 50.6875 5.359375 
Q 44.046875 -1.421875 33.015625 -1.421875 
Q 20.359375 -1.421875 13.671875 8.265625 
Q 6.984375 17.96875 6.984375 36.375 
Q 6.984375 53.65625 15.1875 63.9375 
Q 23.390625 74.21875 37.203125 74.21875 
Q 40.921875 74.21875 44.703125 73.484375 
Q 48.484375 72.75 52.59375 71.296875 
z
" id="DejaVuSans-54"/>
    </defs>
    <g style="fill:#0000ff;" transform="translate(184.251969 168.179528)scale(0.18 -0.18)">
     <use xlink:href="#DejaVuSans-50"/>
     <use x="63.623047" xlink:href="#DejaVuSans-52"/>
     <use x="127.246094" xlink:href="#DejaVuSans-54"/>
    </g>
   </g>
  </g>
 </g>
 <defs>
  <clipPath id="pc6c686953c">
   <rect height="850.393701" width="1275.590551" x="28.346457" y="28.346457"/>
  </clipPath>
 </defs>
</svg>
