  0
SECTION
  2
HEADER
  9
$ACADVER
  1
AC1027
  9
$ACADMAINTVER
 70
105
  9
$DWGCODEPAGE
  3
ANSI_1252
  9
$LASTSAVEDBY
  1
ezdxf
  9
$REQUIREDVERSIONS
160
0
  9
$INSBASE
 10
0.0
 20
0.0
 30
0.0
  9
$EXTMIN
 10
1e+20
 20
1e+20
 30
1e+20
  9
$EXTMAX
 10
-1e+20
 20
-1e+20
 30
-1e+20
  9
$LIMMIN
 10
0.0
 20
0.0
  9
$LIMMAX
 10
420.0
 20
297.0
  9
$ORTHOMODE
 70
0
  9
$REGENMODE
 70
1
  9
$FILLMODE
 70
1
  9
$QTEXTMODE
 70
0
  9
$MIRRTEXT
 70
1
  9
$LTSCALE
 40
1.0
  9
$ATTMODE
 70
1
  9
$TEXTSIZE
 40
2.5
  9
$TRACEWID
 40
1.0
  9
$TEXTSTYLE
  7
OpenSans
  9
$CLAYER
  8
0
  9
$CELTYPE
  6
ByLayer
  9
$CECOLOR
 62
256
  9
$CELTSCALE
 40
1.0
  9
$DISPSILH
 70
0
  9
$DIMSCALE
 40
1.0
  9
$DIMASZ
 40
0.175
  9
$DIMEXO
 40
0.125
  9
$DIMDLI
 40
3.75
  9
$DIMRND
 40
0.0
  9
$DIMDLE
 40
0.0
  9
$DIMEXE
 40
0.375
  9
$DIMTP
 40
0.0
  9
$DIMTM
 40
0.0
  9
$DIMTXT
 40
0.25
  9
$DIMCEN
 40
2.5
  9
$DIMTSZ
 40
0.0
  9
$DIMTOL
 70
0
  9
$DIMLIM
 70
0
  9
$DIMTIH
 70
0
  9
$DIMTOH
 70
0
  9
$DIMSE1
 70
0
  9
$DIMSE2
 70
0
  9
$DIMTAD
 70
1
  9
$DIMZIN
 70
12
  9
$DIMBLK
  1
ARCHTICK
  9
$DIMASO
 70
1
  9
$DIMSHO
 70
1
  9
$DIMPOST
  1

  9
$DIMAPOST
  1

  9
$DIMALT
 70
0
  9
$DIMALTD
 70
3
  9
$DIMALTF
 40
0.03937007874
  9
$DIMLFAC
 40
100.0
  9
$DIMTOFL
 70
1
  9
$DIMTVP
 40
0.0
  9
$DIMTIX
 70
0
  9
$DIMSOXD
 70
0
  9
$DIMSAH
 70
0
  9
$DIMBLK1
  1

  9
$DIMBLK2
  1

  9
$DIMSTYLE
  2
EZDXF
  9
$DIMCLRD
 70
0
  9
$DIMCLRE
 70
0
  9
$DIMCLRT
 70
0
  9
$DIMTFAC
 40
0.5
  9
$DIMGAP
 40
0.1
  9
$DIMJUST
 70
0
  9
$DIMSD1
 70
0
  9
$DIMSD2
 70
0
  9
$DIMTOLJ
 70
0
  9
$DIMTZIN
 70
8
  9
$DIMALTZ
 70
0
  9
$DIMALTTZ
 70
0
  9
$DIMUPT
 70
1
  9
$DIMDEC
 70
2
  9
$DIMTDEC
 70
2
  9
$DIMALTU
 70
2
  9
$DIMALTTD
 70
3
  9
$DIMTXSTY
  7
OpenSansCondensed-Light
  9
$DIMAUNIT
 70
0
  9
$DIMADEC
 70
2
  9
$DIMALTRND
 40
0.0
  9
$DIMAZIN
 70
3
  9
$DIMDSEP
 70
46
  9
$DIMATFIT
 70
3
  9
$DIMFRAC
 70
0
  9
$DIMLDRBLK
  1

  9
$DIMLUNIT
 70
2
  9
$DIMLWD
 70
-2
  9
$DIMLWE
 70
-2
  9
$DIMTMOVE
 70
2
  9
$DIMFXL
 40
1.0
  9
$DIMFXLON
 70
0
  9
$DIMJOGANG
 40
0.785398163397
  9
$DIMTFILL
 70
0
  9
$DIMTFILLCLR
 70
0
  9
$DIMARCSYM
 70
0
  9
$DIMLTYPE
  6

  9
$DIMLTEX1
  6

  9
$DIMLTEX2
  6

  9
$DIMTXTDIRECTION
 70
0
  9
$LUNITS
 70
2
  9
$LUPREC
 70
4
  9
$SKETCHINC
 40
1.0
  9
$FILLETRAD
 40
10.0
  9
$AUNITS
 70
0
  9
$AUPREC
 70
2
  9
$MENU
  1
.
  9
$ELEVATION
 40
0.0
  9
$PELEVATION
 40
0.0
  9
$THICKNESS
 40
0.0
  9
$LIMCHECK
 70
0
  9
$CHAMFERA
 40
0.0
  9
$CHAMFERB
 40
0.0
  9
$CHAMFERC
 40
0.0
  9
$CHAMFERD
 40
0.0
  9
$SKPOLY
 70
0
  9
$TDCREATE
 40
2459574.5742939813
  9
$TDUCREATE
 40
2458532.153996898
  9
$TDUPDATE
 40
2459574.5742939813
  9
$TDUUPDATE
 40
2458532.1544311
  9
$TDINDWG
 40
0.0
  9
$TDUSRTIMER
 40
0.0
  9
$USRTIMER
 70
1
  9
$ANGBASE
 50
0.0
  9
$ANGDIR
 70
0
  9
$PDMODE
 70
0
  9
$PDSIZE
 40
0.0
  9
$PLINEWID
 40
0.0
  9
$SPLFRAME
 70
0
  9
$SPLINETYPE
 70
6
  9
$SPLINESEGS
 70
8
  9
$HANDSEED
  5
9A
  9
$SURFTAB1
 70
6
  9
$SURFTAB2
 70
6
  9
$SURFTYPE
 70
6
  9
$SURFU
 70
6
  9
$SURFV
 70
6
  9
$UCSBASE
  2

  9
$UCSNAME
  2

  9
$UCSORG
 10
0.0
 20
0.0
 30
0.0
  9
$UCSXDIR
 10
1.0
 20
0.0
 30
0.0
  9
$UCSYDIR
 10
0.0
 20
1.0
 30
0.0
  9
$UCSORTHOREF
  2

  9
$UCSORTHOVIEW
 70
0
  9
$UCSORGTOP
 10
0.0
 20
0.0
 30
0.0
  9
$UCSORGBOTTOM
 10
0.0
 20
0.0
 30
0.0
  9
$UCSORGLEFT
 10
0.0
 20
0.0
 30
0.0
  9
$UCSORGRIGHT
 10
0.0
 20
0.0
 30
0.0
  9
$UCSORGFRONT
 10
0.0
 20
0.0
 30
0.0
  9
$UCSORGBACK
 10
0.0
 20
0.0
 30
0.0
  9
$PUCSBASE
  2

  9
$PUCSNAME
  2

  9
$PUCSORG
 10
0.0
 20
0.0
 30
0.0
  9
$PUCSXDIR
 10
1.0
 20
0.0
 30
0.0
  9
$PUCSYDIR
 10
0.0
 20
1.0
 30
0.0
  9
$PUCSORTHOREF
  2

  9
$PUCSORTHOVIEW
 70
0
  9
$PUCSORGTOP
 10
0.0
 20
0.0
 30
0.0
  9
$PUCSORGBOTTOM
 10
0.0
 20
0.0
 30
0.0
  9
$PUCSORGLEFT
 10
0.0
 20
0.0
 30
0.0
  9
$PUCSORGRIGHT
 10
0.0
 20
0.0
 30
0.0
  9
$PUCSORGFRONT
 10
0.0
 20
0.0
 30
0.0
  9
$PUCSORGBACK
 10
0.0
 20
0.0
 30
0.0
  9
$USERI1
 70
0
  9
$USERI2
 70
0
  9
$USERI3
 70
0
  9
$USERI4
 70
0
  9
$USERI5
 70
0
  9
$USERR1
 40
0.0
  9
$USERR2
 40
0.0
  9
$USERR3
 40
0.0
  9
$USERR4
 40
0.0
  9
$USERR5
 40
0.0
  9
$WORLDVIEW
 70
1
  9
$SHADEDGE
 70
3
  9
$SHADEDIF
 70
70
  9
$TILEMODE
 70
1
  9
$MAXACTVP
 70
64
  9
$PINSBASE
 10
0.0
 20
0.0
 30
0.0
  9
$PLIMCHECK
 70
0
  9
$PEXTMIN
 10
1e+20
 20
1e+20
 30
1e+20
  9
$PEXTMAX
 10
-1e+20
 20
-1e+20
 30
-1e+20
  9
$PLIMMIN
 10
0.0
 20
0.0
  9
$PLIMMAX
 10
420.0
 20
297.0
  9
$UNITMODE
 70
0
  9
$VISRETAIN
 70
1
  9
$PLINEGEN
 70
0
  9
$PSLTSCALE
 70
1
  9
$TREEDEPTH
 70
3020
  9
$CMLSTYLE
  2
Standard
  9
$CMLJUST
 70
0
  9
$CMLSCALE
 40
20.0
  9
$PROXYGRAPHICS
 70
1
  9
$MEASUREMENT
 70
1
  9
$CELWEIGHT
370
-1
  9
$ENDCAPS
280
0
  9
$JOINSTYLE
280
0
  9
$LWDISPLAY
290
0
  9
$INSUNITS
 70
5
  9
$HYPERLINKBASE
  1

  9
$STYLESHEET
  1

  9
$XEDIT
290
1
  9
$CEPSNTYPE
380
0
  9
$PSTYLEMODE
290
1
  9
$FINGERPRINTGUID
  2
{52AC0505-1090-4A42-A5BC-2695D373C186}
  9
$VERSIONGUID
  2
{44D815BB-7719-4E35-A3FC-FCD3B1682EEE}
  9
$EXTNAMES
290
1
  9
$PSVPSCALE
 40
0.0
  9
$OLESTARTUP
290
0
  9
$SORTENTS
280
127
  9
$INDEXCTL
280
0
  9
$HIDETEXT
280
1
  9
$XCLIPFRAME
280
0
  9
$HALOGAP
280
0
  9
$OBSCOLOR
 70
257
  9
$OBSLTYPE
280
0
  9
$INTERSECTIONDISPLAY
280
0
  9
$INTERSECTIONCOLOR
 70
257
  9
$DIMASSOC
280
2
  9
$PROJECTNAME
  1

  9
$CAMERADISPLAY
290
0
  9
$LENSLENGTH
 40
50.0
  9
$CAMERAHEIGHT
 40
0.0
  9
$STEPSPERSEC
 40
24.0
  9
$STEPSIZE
 40
100.0
  9
$3DDWFPREC
 40
2.0
  9
$PSOLWIDTH
 40
0.005
  9
$PSOLHEIGHT
 40
0.08
  9
$LOFTANG1
 40
1.570796326795
  9
$LOFTANG2
 40
1.570796326795
  9
$LOFTMAG1
 40
0.0
  9
$LOFTMAG2
 40
0.0
  9
$LOFTPARAM
 70
7
  9
$LOFTNORMALS
280
1
  9
$LATITUDE
 40
37.795
  9
$LONGITUDE
 40
-122.394
  9
$NORTHDIRECTION
 40
0.0
  9
$TIMEZONE
 70
-8000
  9
$LIGHTGLYPHDISPLAY
280
1
  9
$TILEMODELIGHTSYNCH
280
1
  9
$CMATERIAL
347
20
  9
$SOLIDHIST
280
0
  9
$SHOWHIST
280
1
  9
$DWFFRAME
280
2
  9
$DGNFRAME
280
2
  9
$REALWORLDSCALE
290
1
  9
$INTERFERECOLOR
 62
256
  9
$CSHADOW
280
0
  9
$SHADOWPLANELOCATION
 40
0.0
  0
ENDSEC
  0
SECTION
  2
CLASSES
  0
CLASS
  1
ACDBDICTIONARYWDFLT
  2
AcDbDictionaryWithDefault
  3
ObjectDBX Classes
 90
0
 91
0
280
0
281
0
  0
CLASS
  1
SUN
  2
AcDbSun
  3
SCENEOE
 90
1153
 91
0
280
0
281
0
  0
CLASS
  1
VISUALSTYLE
  2
AcDbVisualStyle
  3
ObjectDBX Classes
 90
4095
 91
0
280
0
281
0
  0
CLASS
  1
MATERIAL
  2
AcDbMaterial
  3
ObjectDBX Classes
 90
1153
 91
0
280
0
281
0
  0
CLASS
  1
SCALE
  2
AcDbScale
  3
ObjectDBX Classes
 90
1153
 91
0
280
0
281
0
  0
CLASS
  1
TABLESTYLE
  2
AcDbTableStyle
  3
ObjectDBX Classes
 90
4095
 91
0
280
0
281
0
  0
CLASS
  1
MLEADERSTYLE
  2
AcDbMLeaderStyle
  3
ACDB_MLEADERSTYLE_CLASS
 90
4095
 91
0
280
0
281
0
  0
CLASS
  1
DICTIONARYVAR
  2
AcDbDictionaryVar
  3
ObjectDBX Classes
 90
0
 91
0
280
0
281
0
  0
CLASS
  1
CELLSTYLEMAP
  2
AcDbCellStyleMap
  3
ObjectDBX Classes
 90
1152
 91
0
280
0
281
0
  0
CLASS
  1
MENTALRAYRENDERSETTINGS
  2
AcDbMentalRayRenderSettings
  3
SCENEOE
 90
1024
 91
0
280
0
281
0
  0
CLASS
  1
ACDBDETAILVIEWSTYLE
  2
AcDbDetailViewStyle
  3
ObjectDBX Classes
 90
1025
 91
0
280
0
281
0
  0
CLASS
  1
ACDBSECTIONVIEWSTYLE
  2
AcDbSectionViewStyle
  3
ObjectDBX Classes
 90
1025
 91
0
280
0
281
0
  0
CLASS
  1
RASTERVARIABLES
  2
AcDbRasterVariables
  3
ISM
 90
0
 91
0
280
0
281
0
  0
CLASS
  1
ACDBPLACEHOLDER
  2
AcDbPlaceHolder
  3
ObjectDBX Classes
 90
0
 91
0
280
0
281
0
  0
CLASS
  1
LAYOUT
  2
AcDbLayout
  3
ObjectDBX Classes
 90
0
 91
0
280
0
281
0
  0
ENDSEC
  0
SECTION
  2
TABLES
  0
TABLE
  2
VPORT
  5
8
330
0
100
AcDbSymbolTable
 70
1
  0
VPORT
  5
23
330
8
100
AcDbSymbolTableRecord
100
AcDbViewportTableRecord
  2
*Active
 70
0
 10
0.0
 20
0.0
 11
1.0
 21
1.0
 12
344.2
 22
148.5
 13
0.0
 23
0.0
 14
0.5
 24
0.5
 15
0.5
 25
0.5
 16
0.0
 26
0.0
 36
1.0
 17
0.0
 27
0.0
 37
0.0
 40
297.0
 41
1.34
 42
50.0
 43
0.0
 44
0.0
 50
0.0
 51
0.0
 71
0
 72
1000
 73
1
 74
3
 75
0
 76
0
 77
0
 78
0
281
0
 65
0
146
0.0
  0
ENDTAB
  0
TABLE
  2
LTYPE
  5
2
330
0
100
AcDbSymbolTable
 70
21
  0
LTYPE
  5
24
330
2
100
AcDbSymbolTableRecord
100
AcDbLinetypeTableRecord
  2
ByBlock
 70
0
  3

 72
65
 73
0
 40
0.0
  0
LTYPE
  5
25
330
2
100
AcDbSymbolTableRecord
100
AcDbLinetypeTableRecord
  2
ByLayer
 70
0
  3

 72
65
 73
0
 40
0.0
  0
LTYPE
  5
26
330
2
100
AcDbSymbolTableRecord
100
AcDbLinetypeTableRecord
  2
Continuous
 70
0
  3

 72
65
 73
0
 40
0.0
  0
LTYPE
  5
2F
330
2
100
AcDbSymbolTableRecord
100
AcDbLinetypeTableRecord
  2
CENTER
 70
0
  3
Center ____ _ ____ _ ____ _ ____ _ ____ _ ____
 72
65
 73
4
 40
5.08
 49
3.175
 74
0
 49
-0.635
 74
0
 49
0.635
 74
0
 49
-0.635
 74
0
  0
LTYPE
  5
30
330
2
100
AcDbSymbolTableRecord
100
AcDbLinetypeTableRecord
  2
CENTERX2
 70
0
  3
Center (2x) ________  __  ________  __  ________
 72
65
 73
4
 40
8.89
 49
6.35
 74
0
 49
-0.635
 74
0
 49
1.27
 74
0
 49
-0.635
 74
0
  0
LTYPE
  5
31
330
2
100
AcDbSymbolTableRecord
100
AcDbLinetypeTableRecord
  2
CENTER2
 70
0
  3
Center (.5x) ____ _ ____ _ ____ _ ____ _ ____
 72
65
 73
4
 40
2.54
 49
1.587
 74
0
 49
-0.318
 74
0
 49
0.318
 74
0
 49
-0.318
 74
0
  0
LTYPE
  5
32
330
2
100
AcDbSymbolTableRecord
100
AcDbLinetypeTableRecord
  2
DASHED
 70
0
  3
Dashed __ __ __ __ __ __ __ __ __ __ __ __ __ _
 72
65
 73
2
 40
1.524
 49
1.27
 74
0
 49
-0.254
 74
0
  0
LTYPE
  5
33
330
2
100
AcDbSymbolTableRecord
100
AcDbLinetypeTableRecord
  2
DASHEDX2
 70
0
  3
Dashed (2x) ____  ____  ____  ____  ____  ____
 72
65
 73
2
 40
3.048
 49
2.54
 74
0
 49
-0.508
 74
0
  0
LTYPE
  5
34
330
2
100
AcDbSymbolTableRecord
100
AcDbLinetypeTableRecord
  2
DASHED2
 70
0
  3
Dashed (.5x) _ _ _ _ _ _ _ _ _ _ _ _ _ _
 72
65
 73
2
 40
0.762
 49
0.635
 74
0
 49
-0.127
 74
0
  0
LTYPE
  5
35
330
2
100
AcDbSymbolTableRecord
100
AcDbLinetypeTableRecord
  2
PHANTOM
 70
0
  3
Phantom ______  __  __  ______  __  __  ______
 72
65
 73
6
 40
6.35
 49
3.175
 74
0
 49
-0.635
 74
0
 49
0.635
 74
0
 49
-0.635
 74
0
 49
0.635
 74
0
 49
-0.635
 74
0
  0
LTYPE
  5
36
330
2
100
AcDbSymbolTableRecord
100
AcDbLinetypeTableRecord
  2
PHANTOMX2
 70
0
  3
Phantom (2x)____________    ____    ____    ____________
 72
65
 73
6
 40
10.795
 49
6.35
 74
0
 49
-0.635
 74
0
 49
1.27
 74
0
 49
-0.635
 74
0
 49
1.27
 74
0
 49
-0.635
 74
0
  0
LTYPE
  5
37
330
2
100
AcDbSymbolTableRecord
100
AcDbLinetypeTableRecord
  2
PHANTOM2
 70
0
  3
Phantom (.5x) ___ _ _ ___ _ _ ___ _ _ ___ _ _ ___
 72
65
 73
6
 40
3.175
 49
1.587
 74
0
 49
-0.318
 74
0
 49
0.318
 74
0
 49
-0.318
 74
0
 49
0.318
 74
0
 49
-0.318
 74
0
  0
LTYPE
  5
38
330
2
100
AcDbSymbolTableRecord
100
AcDbLinetypeTableRecord
  2
DASHDOT
 70
0
  3
Dash dot __ . __ . __ . __ . __ . __ . __ . __
 72
65
 73
4
 40
3.556
 49
2.54
 74
0
 49
-0.508
 74
0
 49
0.0
 74
0
 49
-0.508
 74
0
  0
LTYPE
  5
39
330
2
100
AcDbSymbolTableRecord
100
AcDbLinetypeTableRecord
  2
DASHDOTX2
 70
0
  3
Dash dot (2x) ____  .  ____  .  ____  .  ____
 72
65
 73
4
 40
6.096
 49
5.08
 74
0
 49
-0.508
 74
0
 49
0.0
 74
0
 49
-0.508
 74
0
  0
LTYPE
  5
3A
330
2
100
AcDbSymbolTableRecord
100
AcDbLinetypeTableRecord
  2
DASHDOT2
 70
0
  3
Dash dot (.5x) _ . _ . _ . _ . _ . _ . _ . _
 72
65
 73
4
 40
1.778
 49
1.27
 74
0
 49
-0.254
 74
0
 49
0.0
 74
0
 49
-0.254
 74
0
  0
LTYPE
  5
3B
330
2
100
AcDbSymbolTableRecord
100
AcDbLinetypeTableRecord
  2
DOT
 70
0
  3
Dot .  .  .  .  .  .  .  .  .  .  .  .  .  .  .  .
 72
65
 73
2
 40
0.508
 49
0.0
 74
0
 49
-0.508
 74
0
  0
LTYPE
  5
3C
330
2
100
AcDbSymbolTableRecord
100
AcDbLinetypeTableRecord
  2
DOTX2
 70
0
  3
Dot (2x) .    .    .    .    .    .    .    . 
 72
65
 73
2
 40
1.016
 49
0.0
 74
0
 49
-1.016
 74
0
  0
LTYPE
  5
3D
330
2
100
AcDbSymbolTableRecord
100
AcDbLinetypeTableRecord
  2
DOT2
 70
0
  3
Dot (.5) . . . . . . . . . . . . . . . . . . . 
 72
65
 73
2
 40
0.254
 49
0.0
 74
0
 49
-0.254
 74
0
  0
LTYPE
  5
3E
330
2
100
AcDbSymbolTableRecord
100
AcDbLinetypeTableRecord
  2
DIVIDE
 70
0
  3
Divide __ . . __ . . __ . . __ . . __ . . __
 72
65
 73
6
 40
4.064
 49
2.54
 74
0
 49
-0.508
 74
0
 49
0.0
 74
0
 49
-0.508
 74
0
 49
0.0
 74
0
 49
-0.508
 74
0
  0
LTYPE
  5
3F
330
2
100
AcDbSymbolTableRecord
100
AcDbLinetypeTableRecord
  2
DIVIDEX2
 70
0
  3
Divide (2x) ____  . .  ____  . .  ____  . .  ____
 72
65
 73
6
 40
6.604
 49
5.08
 74
0
 49
-0.508
 74
0
 49
0.0
 74
0
 49
-0.508
 74
0
 49
0.0
 74
0
 49
-0.508
 74
0
  0
LTYPE
  5
40
330
2
100
AcDbSymbolTableRecord
100
AcDbLinetypeTableRecord
  2
DIVIDE2
 70
0
  3
Divide(.5x) _ . _ . _ . _ . _ . _ . _ . _
 72
65
 73
6
 40
2.032
 49
1.27
 74
0
 49
-0.254
 74
0
 49
0.0
 74
0
 49
-0.254
 74
0
 49
0.0
 74
0
 49
-0.254
 74
0
  0
ENDTAB
  0
TABLE
  2
LAYER
  5
1
330
0
100
AcDbSymbolTable
 70
3
  0
LAYER
  5
27
330
1
100
AcDbSymbolTableRecord
100
AcDbLayerTableRecord
  2
0
 70
0
 62
7
  6
Continuous
370
-3
390
13
347
21
  0
LAYER
  5
28
330
1
100
AcDbSymbolTableRecord
100
AcDbLayerTableRecord
  2
Defpoints
 70
0
 62
7
  6
Continuous
290
0
370
-3
390
13
347
21
  0
LAYER
  5
8A
330
1
100
AcDbSymbolTableRecord
100
AcDbLayerTableRecord
  2
SSNP
 70
0
 62
1
  6
CONTINUOUS
370
158
390
13
347
21
  0
ENDTAB
  0
TABLE
  2
STYLE
  5
5
330
0
100
AcDbSymbolTable
 70
26
  0
STYLE
  5
29
330
5
100
AcDbSymbolTableRecord
100
AcDbTextStyleTableRecord
  2
Standard
 70
0
 40
0.0
 41
1.0
 50
0.0
 71
0
 42
2.5
  3
txt
  4

  0
STYLE
  5
41
330
5
100
AcDbSymbolTableRecord
100
AcDbTextStyleTableRecord
  2
OpenSans-Light
 70
0
 40
0.0
 41
1.0
 50
0.0
 71
0
 42
2.5
  3
OpenSans-Light.ttf
  4

  0
STYLE
  5
42
330
5
100
AcDbSymbolTableRecord
100
AcDbTextStyleTableRecord
  2
OpenSans-Light-Italic
 70
0
 40
0.0
 41
1.0
 50
0.0
 71
0
 42
2.5
  3
OpenSans-LightItalic.ttf
  4

  0
STYLE
  5
43
330
5
100
AcDbSymbolTableRecord
100
AcDbTextStyleTableRecord
  2
OpenSans
 70
0
 40
0.0
 41
1.0
 50
0.0
 71
0
 42
2.5
  3
OpenSans-Regular.ttf
  4

  0
STYLE
  5
44
330
5
100
AcDbSymbolTableRecord
100
AcDbTextStyleTableRecord
  2
OpenSans-Italic
 70
0
 40
0.0
 41
1.0
 50
0.0
 71
0
 42
2.5
  3
OpenSans-Italic.ttf
  4

  0
STYLE
  5
45
330
5
100
AcDbSymbolTableRecord
100
AcDbTextStyleTableRecord
  2
OpenSans-SemiBold
 70
0
 40
0.0
 41
1.0
 50
0.0
 71
0
 42
2.5
  3
OpenSans-SemiBold.ttf
  4

  0
STYLE
  5
46
330
5
100
AcDbSymbolTableRecord
100
AcDbTextStyleTableRecord
  2
OpenSans-SemiBoldItalic
 70
0
 40
0.0
 41
1.0
 50
0.0
 71
0
 42
2.5
  3
OpenSans-SemiBoldItalic.ttf
  4

  0
STYLE
  5
47
330
5
100
AcDbSymbolTableRecord
100
AcDbTextStyleTableRecord
  2
OpenSans-Bold
 70
0
 40
0.0
 41
1.0
 50
0.0
 71
0
 42
2.5
  3
OpenSans-Bold.ttf
  4

  0
STYLE
  5
48
330
5
100
AcDbSymbolTableRecord
100
AcDbTextStyleTableRecord
  2
OpenSans-BoldItalic
 70
0
 40
0.0
 41
1.0
 50
0.0
 71
0
 42
2.5
  3
OpenSans-BoldItalic.ttf
  4

  0
STYLE
  5
49
330
5
100
AcDbSymbolTableRecord
100
AcDbTextStyleTableRecord
  2
OpenSans-ExtraBold
 70
0
 40
0.0
 41
1.0
 50
0.0
 71
0
 42
2.5
  3
OpenSans-ExtraBold.ttf
  4

  0
STYLE
  5
4A
330
5
100
AcDbSymbolTableRecord
100
AcDbTextStyleTableRecord
  2
OpenSans-ExtraBoldItalic
 70
0
 40
0.0
 41
1.0
 50
0.0
 71
0
 42
2.5
  3
OpenSans-ExtraBoldItalic.ttf
  4

  0
STYLE
  5
4B
330
5
100
AcDbSymbolTableRecord
100
AcDbTextStyleTableRecord
  2
OpenSansCondensed-Bold
 70
0
 40
0.0
 41
1.0
 50
0.0
 71
0
 42
2.5
  3
OpenSansCondensed-Bold.ttf
  4

  0
STYLE
  5
4C
330
5
100
AcDbSymbolTableRecord
100
AcDbTextStyleTableRecord
  2
OpenSansCondensed-Light
 70
0
 40
0.0
 41
1.0
 50
0.0
 71
0
 42
2.5
  3
OpenSansCondensed-Light.ttf
  4

  0
STYLE
  5
4D
330
5
100
AcDbSymbolTableRecord
100
AcDbTextStyleTableRecord
  2
OpenSansCondensed-Italic
 70
0
 40
0.0
 41
1.0
 50
0.0
 71
0
 42
2.5
  3
OpenSansCondensed-LightItalic.ttf
  4

  0
STYLE
  5
4E
330
5
100
AcDbSymbolTableRecord
100
AcDbTextStyleTableRecord
  2
LiberationSans
 70
0
 40
0.0
 41
1.0
 50
0.0
 71
0
 42
2.5
  3
LiberationSans-Regular.ttf
  4

  0
STYLE
  5
4F
330
5
100
AcDbSymbolTableRecord
100
AcDbTextStyleTableRecord
  2
LiberationSans-Bold
 70
0
 40
0.0
 41
1.0
 50
0.0
 71
0
 42
2.5
  3
LiberationSans-Bold.ttf
  4

  0
STYLE
  5
50
330
5
100
AcDbSymbolTableRecord
100
AcDbTextStyleTableRecord
  2
LiberationSans-BoldItalic
 70
0
 40
0.0
 41
1.0
 50
0.0
 71
0
 42
2.5
  3
LiberationSans-BoldItalic.ttf
  4

  0
STYLE
  5
51
330
5
100
AcDbSymbolTableRecord
100
AcDbTextStyleTableRecord
  2
LiberationSans-Italic
 70
0
 40
0.0
 41
1.0
 50
0.0
 71
0
 42
2.5
  3
LiberationSans-Italic.ttf
  4

  0
STYLE
  5
52
330
5
100
AcDbSymbolTableRecord
100
AcDbTextStyleTableRecord
  2
LiberationSerif
 70
0
 40
0.0
 41
1.0
 50
0.0
 71
0
 42
2.5
  3
LiberationSerif-Regular.ttf
  4

  0
STYLE
  5
53
330
5
100
AcDbSymbolTableRecord
100
AcDbTextStyleTableRecord
  2
LiberationSerif-Bold
 70
0
 40
0.0
 41
1.0
 50
0.0
 71
0
 42
2.5
  3
LiberationSerif-Bold.ttf
  4

  0
STYLE
  5
54
330
5
100
AcDbSymbolTableRecord
100
AcDbTextStyleTableRecord
  2
LiberationSerif-BoldItalic
 70
0
 40
0.0
 41
1.0
 50
0.0
 71
0
 42
2.5
  3
LiberationSerif-BoldItalic.ttf
  4

  0
STYLE
  5
55
330
5
100
AcDbSymbolTableRecord
100
AcDbTextStyleTableRecord
  2
LiberationSerif-Italic
 70
0
 40
0.0
 41
1.0
 50
0.0
 71
0
 42
2.5
  3
LiberationSerif-Italic.ttf
  4

  0
STYLE
  5
56
330
5
100
AcDbSymbolTableRecord
100
AcDbTextStyleTableRecord
  2
LiberationMono
 70
0
 40
0.0
 41
1.0
 50
0.0
 71
0
 42
2.5
  3
LiberationMono-Regular.ttf
  4

  0
STYLE
  5
57
330
5
100
AcDbSymbolTableRecord
100
AcDbTextStyleTableRecord
  2
LiberationMono-Bold
 70
0
 40
0.0
 41
1.0
 50
0.0
 71
0
 42
2.5
  3
LiberationMono-Bold.ttf
  4

  0
STYLE
  5
58
330
5
100
AcDbSymbolTableRecord
100
AcDbTextStyleTableRecord
  2
LiberationMono-BoldItalic
 70
0
 40
0.0
 41
1.0
 50
0.0
 71
0
 42
2.5
  3
LiberationMono-BoldItalic.ttf
  4

  0
STYLE
  5
59
330
5
100
AcDbSymbolTableRecord
100
AcDbTextStyleTableRecord
  2
LiberationMono-Italic
 70
0
 40
0.0
 41
1.0
 50
0.0
 71
0
 42
2.5
  3
LiberationMono-Italic.ttf
  4

  0
ENDTAB
  0
TABLE
  2
VIEW
  5
7
330
0
100
AcDbSymbolTable
 70
0
  0
ENDTAB
  0
TABLE
  2
UCS
  5
6
330
0
100
AcDbSymbolTable
 70
0
  0
ENDTAB
  0
TABLE
  2
APPID
  5
3
330
0
100
AcDbSymbolTable
 70
3
  0
APPID
  5
2A
330
3
100
AcDbSymbolTableRecord
100
AcDbRegAppTableRecord
  2
ACAD
 70
0
  0
APPID
  5
97
330
3
100
AcDbSymbolTableRecord
100
AcDbRegAppTableRecord
  2
HATCHBACKGROUNDCOLOR
 70
0
  0
APPID
  5
98
330
3
100
AcDbSymbolTableRecord
100
AcDbRegAppTableRecord
  2
EZDXF
 70
0
  0
ENDTAB
  0
TABLE
  2
DIMSTYLE
  5
4
330
0
100
AcDbSymbolTable
 70
12
100
AcDbDimStyleTable
  0
DIMSTYLE
105
2B
330
4
100
AcDbSymbolTableRecord
100
AcDbDimStyleTableRecord
  2
Standard
 70
0
 40
1.0
 41
2.5
 42
0.625
 43
3.75
 44
1.25
 45
0.0
 46
0.0
 47
0.0
 48
0.0
 49
2.5
140
2.5
141
2.5
142
0.0
143
0.03937007874
144
1.0
145
0.0
146
1.0
147
0.625
148
0.0
 69
0
 70
0
 71
0
 72
0
 73
0
 74
0
 75
0
 76
0
 77
1
 78
8
 79
3
170
0
171
3
172
1
173
0
174
0
175
0
176
0
177
0
178
0
179
2
271
2
272
2
273
2
274
3
275
0
276
0
277
2
278
44
279
0
280
0
281
0
282
0
283
0
284
8
285
0
286
0
288
0
289
3
290
0
371
-2
372
-2
  0
DIMSTYLE
105
73
330
4
100
AcDbSymbolTableRecord
100
AcDbDimStyleTableRecord
  2
EZDXF
 70
0
 40
1.0
 41
0.175
 42
0.125
 43
3.75
 44
0.375
 45
0.0
 46
0.0
 47
0.0
 48
0.0
 49
2.5
140
0.25
141
2.5
142
0.0
143
0.03937007874
144
100.0
145
0.0
146
0.5
147
0.1
148
0.0
 69
0
 70
0
 71
0
 72
0
 73
0
 74
0
 75
0
 76
0
 77
1
 78
12
 79
3
170
0
171
3
172
1
173
0
174
0
175
0
176
0
177
0
178
0
179
2
271
2
272
2
273
2
274
3
275
0
276
0
277
2
278
46
279
2
280
0
281
0
282
0
283
0
284
8
285
0
286
0
288
1
289
3
290
0
340
4C
342
74
371
-2
372
-2
  0
DIMSTYLE
105
7C
330
4
100
AcDbSymbolTableRecord
100
AcDbDimStyleTableRecord
  2
EZ_M_100_H25_CM
 70
0
 40
1.0
 41
0.25
 42
0.125
 43
3.75
 44
0.375
 45
0.0
 46
0.0
 47
0.0
 48
0.0
 49
2.5
140
0.25
141
2.5
142
0.125
143
0.03937007874
144
100.0
145
0.0
146
0.5
147
0.1
148
0.0
 69
0
 70
0
 71
0
 72
0
 73
0
 74
0
 75
0
 76
0
 77
1
 78
12
 79
3
170
0
171
3
172
1
173
0
174
0
175
0
176
0
177
0
178
0
179
2
271
2
272
2
273
2
274
3
275
0
276
0
277
2
278
46
279
2
280
0
281
0
282
0
283
0
284
8
285
0
286
0
288
1
289
3
290
0
340
4C
371
-2
372
-2
  0
DIMSTYLE
105
7D
330
4
100
AcDbSymbolTableRecord
100
AcDbDimStyleTableRecord
  2
EZ_M_50_H25_CM
 70
0
 40
1.0
 41
0.125
 42
0.0625
 43
3.75
 44
0.1875
 45
0.0
 46
0.0
 47
0.0
 48
0.0
 49
2.5
140
0.125
141
2.5
142
0.0625
143
0.03937007874
144
100.0
145
0.0
146
0.5
147
0.05
148
0.0
 69
0
 70
0
 71
0
 72
0
 73
0
 74
0
 75
0
 76
0
 77
1
 78
12
 79
3
170
0
171
3
172
1
173
0
174
0
175
0
176
0
177
0
178
0
179
2
271
2
272
2
273
2
274
3
275
0
276
0
277
2
278
46
279
2
280
0
281
0
282
0
283
0
284
8
285
0
286
0
288
1
289
3
290
0
340
4C
371
-2
372
-2
  0
DIMSTYLE
105
7E
330
4
100
AcDbSymbolTableRecord
100
AcDbDimStyleTableRecord
  2
EZ_M_25_H25_CM
 70
0
 40
1.0
 41
0.0625
 42
0.03125
 43
3.75
 44
0.09375
 45
0.0
 46
0.0
 47
0.0
 48
0.0
 49
2.5
140
0.0625
141
2.5
142
0.03125
143
0.03937007874
144
100.0
145
0.0
146
0.5
147
0.025
148
0.0
 69
0
 70
0
 71
0
 72
0
 73
0
 74
0
 75
0
 76
0
 77
1
 78
12
 79
3
170
0
171
3
172
1
173
0
174
0
175
0
176
0
177
0
178
0
179
2
271
2
272
2
273
2
274
3
275
0
276
0
277
2
278
46
279
2
280
0
281
0
282
0
283
0
284
8
285
0
286
0
288
1
289
3
290
0
340
4C
371
-2
372
-2
  0
DIMSTYLE
105
7F
330
4
100
AcDbSymbolTableRecord
100
AcDbDimStyleTableRecord
  2
EZ_M_20_H25_CM
 70
0
 40
1.0
 41
0.05
 42
0.025
 43
3.75
 44
0.07500000000000001
 45
0.0
 46
0.0
 47
0.0
 48
0.0
 49
2.5
140
0.05
141
2.5
142
0.025
143
0.03937007874
144
100.0
145
0.0
146
0.5
147
0.020000000000000004
148
0.0
 69
0
 70
0
 71
0
 72
0
 73
0
 74
0
 75
0
 76
0
 77
1
 78
12
 79
3
170
0
171
3
172
1
173
0
174
0
175
0
176
0
177
0
178
0
179
2
271
2
272
2
273
2
274
3
275
0
276
0
277
2
278
46
279
2
280
0
281
0
282
0
283
0
284
8
285
0
286
0
288
1
289
3
290
0
340
4C
371
-2
372
-2
  0
DIMSTYLE
105
80
330
4
100
AcDbSymbolTableRecord
100
AcDbDimStyleTableRecord
  2
EZ_M_10_H25_CM
 70
0
 40
1.0
 41
0.025
 42
0.0125
 43
3.75
 44
0.037500000000000006
 45
0.0
 46
0.0
 47
0.0
 48
0.0
 49
2.5
140
0.025
141
2.5
142
0.0125
143
0.03937007874
144
100.0
145
0.0
146
0.5
147
0.010000000000000002
148
0.0
 69
0
 70
0
 71
0
 72
0
 73
0
 74
0
 75
0
 76
0
 77
1
 78
12
 79
3
170
0
171
3
172
1
173
0
174
0
175
0
176
0
177
0
178
0
179
2
271
2
272
2
273
2
274
3
275
0
276
0
277
2
278
46
279
2
280
0
281
0
282
0
283
0
284
8
285
0
286
0
288
1
289
3
290
0
340
4C
371
-2
372
-2
  0
DIMSTYLE
105
81
330
4
100
AcDbSymbolTableRecord
100
AcDbDimStyleTableRecord
  2
EZ_M_5_H25_CM
 70
0
 40
1.0
 41
0.0125
 42
0.00625
 43
3.75
 44
0.018750000000000003
 45
0.0
 46
0.0
 47
0.0
 48
0.0
 49
2.5
140
0.0125
141
2.5
142
0.00625
143
0.03937007874
144
100.0
145
0.0
146
0.5
147
0.005000000000000001
148
0.0
 69
0
 70
0
 71
0
 72
0
 73
0
 74
0
 75
0
 76
0
 77
1
 78
12
 79
3
170
0
171
3
172
1
173
0
174
0
175
0
176
0
177
0
178
0
179
2
271
2
272
2
273
2
274
3
275
0
276
0
277
2
278
46
279
2
280
0
281
0
282
0
283
0
284
8
285
0
286
0
288
1
289
3
290
0
340
4C
371
-2
372
-2
  0
DIMSTYLE
105
82
330
4
100
AcDbSymbolTableRecord
100
AcDbDimStyleTableRecord
  2
EZ_M_1_H25_CM
 70
0
 40
1.0
 41
0.0025
 42
0.00125
 43
3.75
 44
0.00375
 45
0.0
 46
0.0
 47
0.0
 48
0.0
 49
2.5
140
0.0025
141
2.5
142
0.00125
143
0.03937007874
144
100.0
145
0.0
146
0.5
147
0.001
148
0.0
 69
0
 70
0
 71
0
 72
0
 73
0
 74
0
 75
0
 76
0
 77
1
 78
12
 79
3
170
0
171
3
172
1
173
0
174
0
175
0
176
0
177
0
178
0
179
2
271
2
272
2
273
2
274
3
275
0
276
0
277
2
278
46
279
2
280
0
281
0
282
0
283
0
284
8
285
0
286
0
288
1
289
3
290
0
340
4C
371
-2
372
-2
  0
DIMSTYLE
105
83
330
4
100
AcDbSymbolTableRecord
100
AcDbDimStyleTableRecord
  2
EZ_RADIUS
 70
0
 40
1.0
 41
0.25
 42
0.125
 43
3.75
 44
0.375
 45
0.0
 46
0.0
 47
0.0
 48
0.0
 49
2.5
140
0.25
141
0.0
142
0.0
143
0.03937007874
144
100.0
145
0.0
146
0.5
147
0.1
148
0.0
 69
0
 70
0
 71
0
 72
0
 73
0
 74
0
 75
0
 76
0
 77
1
 78
12
 79
3
170
0
171
3
172
0
173
0
174
0
175
0
176
0
177
0
178
0
179
2
271
2
272
2
273
2
274
3
275
0
276
0
277
2
278
46
279
1
280
0
281
0
282
0
283
0
284
8
285
0
286
0
288
1
289
3
290
0
340
4C
342
84
371
-2
372
-2
  0
DIMSTYLE
105
88
330
4
100
AcDbSymbolTableRecord
100
AcDbDimStyleTableRecord
  2
EZ_RADIUS_INSIDE
 70
0
 40
1.0
 41
0.25
 42
0.125
 43
3.75
 44
0.375
 45
0.0
 46
0.0
 47
0.0
 48
0.0
 49
2.5
140
0.25
141
0.0
142
0.0
143
0.03937007874
144
100.0
145
0.0
146
0.5
147
0.1
148
0.0
 69
0
 70
0
 71
0
 72
0
 73
0
 74
0
 75
0
 76
0
 77
0
 78
12
 79
3
170
0
171
3
172
0
173
0
174
1
175
0
176
0
177
0
178
0
179
2
271
2
272
2
273
2
274
3
275
0
276
0
277
2
278
46
279
0
280
0
281
0
282
0
283
0
284
8
285
0
286
0
288
1
289
0
290
0
340
4C
342
84
371
-2
372
-2
  0
DIMSTYLE
105
89
330
4
100
AcDbSymbolTableRecord
100
AcDbDimStyleTableRecord
  2
EZ_CURVED
 70
0
 40
1.0
 41
0.25
 42
0.125
 43
3.75
 44
0.375
 45
0.0
 46
0.0
 47
0.0
 48
0.0
 49
2.5
140
0.25
141
2.5
142
0.0
143
0.03937007874
144
100.0
145
0.0
146
0.5
147
0.1
148
0.0
 69
0
 70
0
 71
0
 72
0
 73
0
 74
0
 75
0
 76
0
 77
1
 78
12
 79
3
170
0
171
3
172
1
173
0
174
0
175
0
176
0
177
0
178
0
179
2
271
2
272
2
273
2
274
3
275
0
276
0
277
2
278
46
279
2
280
0
281
0
282
0
283
0
284
8
285
0
286
0
288
1
289
3
290
0
340
4C
371
-2
372
-2
  0
ENDTAB
  0
TABLE
  2
BLOCK_RECORD
  5
9
330
0
100
AcDbSymbolTable
 70
5
  0
BLOCK_RECORD
  5
17
330
9
100
AcDbSymbolTableRecord
100
AcDbBlockTableRecord
  2
*Model_Space
340
1A
 70
0
280
1
281
0
  0
BLOCK_RECORD
  5
1B
330
9
100
AcDbSymbolTableRecord
100
AcDbBlockTableRecord
  2
*Paper_Space
340
1E
 70
0
280
1
281
0
  0
BLOCK_RECORD
  5
74
330
9
100
AcDbSymbolTableRecord
100
AcDbBlockTableRecord
  2
_ARCHTICK
340
0
 70
0
280
1
281
0
  0
BLOCK_RECORD
  5
78
330
9
100
AcDbSymbolTableRecord
100
AcDbBlockTableRecord
  2
_CLOSEDFILLED
340
0
 70
0
280
1
281
0
  0
BLOCK_RECORD
  5
84
330
9
100
AcDbSymbolTableRecord
100
AcDbBlockTableRecord
  2
_CLOSEDBLANK
340
0
 70
0
280
1
281
0
  0
ENDTAB
  0
ENDSEC
  0
SECTION
  2
BLOCKS
  0
BLOCK
  5
18
330
17
100
AcDbEntity
  8
0
100
AcDbBlockBegin
  2
*Model_Space
 70
0
 10
0.0
 20
0.0
 30
0.0
  3
*Model_Space
  1

  0
ENDBLK
  5
19
330
17
100
AcDbEntity
  8
0
100
AcDbBlockEnd
  0
BLOCK
  5
1C
330
1B
100
AcDbEntity
  8
0
100
AcDbBlockBegin
  2
*Paper_Space
 70
0
 10
0.0
 20
0.0
 30
0.0
  3
*Paper_Space
  1

  0
ENDBLK
  5
1D
330
1B
100
AcDbEntity
  8
0
100
AcDbBlockEnd
  0
BLOCK
  5
75
330
74
100
AcDbEntity
  8
0
100
AcDbBlockBegin
  2
_ARCHTICK
 70
0
 10
0.0
 20
0.0
 30
0.0
  3
_ARCHTICK
  1

  0
LWPOLYLINE
  5
77
330
74
100
AcDbEntity
  8
0
  6
BYBLOCK
 62
0
100
AcDbPolyline
 90
2
 70
0
 43
0.15
 10
-0.5
 20
-0.5000000000000001
 10
0.5000000000000001
 20
0.5
  0
ENDBLK
  5
76
330
74
100
AcDbEntity
  8
0
100
AcDbBlockEnd
  0
BLOCK
  5
79
330
78
100
AcDbEntity
  8
0
100
AcDbBlockBegin
  2
_CLOSEDFILLED
 70
0
 10
0.0
 20
0.0
 30
0.0
  3
_CLOSEDFILLED
  1

  0
SOLID
  5
7B
330
78
100
AcDbEntity
  8
0
  6
BYBLOCK
 62
0
100
AcDbTrace
 10
-1.0
 20
0.1643989837240255
 30
0.0
 11
0.0
 21
0.0
 31
0.0
 12
-1.0
 22
-0.1643989837240255
 32
0.0
 13
-1.0
 23
-0.1643989837240255
 33
0.0
  0
ENDBLK
  5
7A
330
78
100
AcDbEntity
  8
0
100
AcDbBlockEnd
  0
BLOCK
  5
85
330
84
100
AcDbEntity
  8
0
100
AcDbBlockBegin
  2
_CLOSEDBLANK
 70
0
 10
0.0
 20
0.0
 30
0.0
  3
_CLOSEDBLANK
  1

  0
LWPOLYLINE
  5
87
330
84
100
AcDbEntity
  8
0
  6
BYBLOCK
 62
0
100
AcDbPolyline
 90
3
 70
1
 10
-1.0
 20
0.1643989837240255
 10
0.0
 20
0.0
 10
-1.0
 20
-0.1643989837240255
  0
ENDBLK
  5
86
330
84
100
AcDbEntity
  8
0
100
AcDbBlockEnd
  0
ENDSEC
  0
SECTION
  2
ENTITIES
  0
LWPOLYLINE
  5
8B
330
17
100
AcDbEntity
  8
SSNP
100
AcDbPolyline
 90
209
 70
0
 10
10.25
 20
-2.0
 10
10.25
 20
-1.2
 10
9.75
 20
-1.2
 10
9.75
 20
-2.0
 10
-1.0
 20
-2.0
 10
-1.0
 20
0.0
 10
-1.0
 20
0.0
 10
-0.8
 20
0.0
 10
-0.6
 20
0.0
 10
-0.4
 20
0.0
 10
-0.2
 20
0.0
 10
0.0
 20
0.0
 10
0.2
 20
0.0
 10
0.4
 20
0.0
 10
0.6
 20
0.0
 10
0.8
 20
0.0
 10
1.0
 20
0.0
 10
1.2
 20
0.0
 10
1.4
 20
0.215
 10
1.6
 20
0.281
 10
1.8
 20
0.284
 10
2.0
 20
0.324
 10
2.2
 20
0.388
 10
2.4
 20
0.44
 10
2.6
 20
0.527
 10
2.8
 20
0.554
 10
3.0
 20
0.616
 10
3.2
 20
0.692
 10
3.4
 20
0.832
 10
3.6
 20
0.937
 10
3.8
 20
0.952
 10
4.0
 20
0.973
 10
4.2
 20
0.973
 10
4.4
 20
1.044
 10
4.6
 20
1.172
 10
4.8
 20
1.285
 10
5.0
 20
1.333
 10
5.2
 20
1.369
 10
5.4
 20
1.333
 10
5.6
 20
1.361
 10
5.8
 20
1.392
 10
6.0
 20
1.507
 10
6.2
 20
1.629
 10
6.4
 20
1.658
 10
6.6
 20
1.757
 10
6.8
 20
1.719
 10
7.0
 20
1.776
 10
7.2
 20
1.756
 10
7.4
 20
1.771
 10
7.6
 20
1.91
 10
7.8
 20
1.913
 10
8.0
 20
1.882
 10
8.2
 20
1.909
 10
8.4
 20
1.922
 10
8.6
 20
1.946
 10
8.8
 20
2.029
 10
9.0
 20
2.082
 10
9.2
 20
2.152
 10
9.4
 20
2.164
 10
9.6
 20
2.215
 10
9.8
 20
2.225
 10
10.0
 20
2.23
 10
10.2
 20
2.168
 10
10.4
 20
2.16
 10
10.6
 20
2.15
 10
10.8
 20
2.156
 10
11.0
 20
2.162
 10
11.2
 20
2.164
 10
11.4
 20
2.086
 10
11.6
 20
2.117
 10
11.8
 20
2.059
 10
12.0
 20
2.006
 10
12.2
 20
1.952
 10
12.4
 20
1.904
 10
12.6
 20
1.844
 10
12.8
 20
1.761
 10
13.0
 20
1.664
 10
13.2
 20
1.585
 10
13.4
 20
1.547
 10
13.6
 20
1.485
 10
13.8
 20
1.448
 10
14.0
 20
1.436
 10
14.2
 20
1.351
 10
14.4
 20
1.271
 10
14.6
 20
1.22
 10
14.8
 20
1.209
 10
15.0
 20
1.231
 10
15.2
 20
1.176
 10
15.4
 20
1.09
 10
15.6
 20
0.997
 10
15.8
 20
0.908
 10
16.0
 20
0.854
 10
16.2
 20
0.862
 10
16.4
 20
0.832
 10
16.6
 20
0.883
 10
16.8
 20
0.909
 10
17.0
 20
0.858
 10
17.2
 20
0.772
 10
17.4
 20
0.718
 10
17.6
 20
0.634
 10
17.8
 20
0.56
 10
18.0
 20
0.466
 10
18.2
 20
0.448
 10
18.4
 20
0.492
 10
18.6
 20
0.578
 10
18.8
 20
0.634
 10
19.0
 20
0.716
 10
19.2
 20
0.823
 10
19.4
 20
0.861
 10
19.6
 20
0.799
 10
19.8
 20
0.726
 10
20.0
 20
0.716
 10
20.2
 20
0.674
 10
20.4
 20
0.658
 10
20.6
 20
0.719
 10
20.8
 20
0.681
 10
21.0
 20
0.63
 10
21.2
 20
0.556
 10
21.4
 20
0.518
 10
21.6
 20
0.461
 10
21.8
 20
0.412
 10
22.0
 20
0.394
 10
22.2
 20
0.319
 10
22.4
 20
0.255
 10
22.6
 20
0.233
 10
22.8
 20
0.226
 10
23.0
 20
0.267
 10
23.2
 20
0.266
 10
23.4
 20
0.252
 10
23.6
 20
0.306
 10
23.8
 20
0.369
 10
24.0
 20
0.399
 10
24.2
 20
0.377
 10
24.4
 20
0.334
 10
24.6
 20
0.3
 10
24.8
 20
0.262
 10
25.0
 20
0.22
 10
25.2
 20
0.182
 10
25.4
 20
0.134
 10
25.6
 20
0.0
 10
25.8
 20
0.0
 10
26.0
 20
0.0
 10
26.2
 20
0.0
 10
26.4
 20
0.0
 10
26.6
 20
0.0
 10
26.8
 20
0.0
 10
27.0
 20
0.0
 10
27.2
 20
0.0
 10
27.4
 20
0.0
 10
27.6
 20
0.0
 10
27.8
 20
0.0
 10
28.0
 20
0.0
 10
28.2
 20
0.0
 10
28.4
 20
0.0
 10
28.6
 20
0.0
 10
28.8
 20
0.0
 10
29.0
 20
0.0
 10
29.2
 20
0.0
 10
29.4
 20
0.0
 10
29.6
 20
0.0
 10
29.8
 20
0.0
 10
30.0
 20
0.0
 10
30.2
 20
0.0
 10
30.4
 20
0.0
 10
30.6
 20
0.0
 10
30.8
 20
0.0
 10
31.0
 20
0.0
 10
31.2
 20
0.0
 10
31.4
 20
0.0
 10
31.6
 20
0.0
 10
31.8
 20
0.0
 10
32.0
 20
0.0
 10
32.2
 20
0.0
 10
32.4
 20
0.0
 10
32.6
 20
0.0
 10
32.8
 20
0.0
 10
33.0
 20
0.0
 10
33.2
 20
0.0
 10
33.4
 20
0.0
 10
33.6
 20
0.0
 10
33.8
 20
0.0
 10
34.0
 20
0.0
 10
34.2
 20
0.0
 10
34.4
 20
0.0
 10
34.6
 20
0.0
 10
34.8
 20
0.0
 10
35.0
 20
0.0
 10
35.2
 20
0.0
 10
35.4
 20
0.0
 10
35.6
 20
0.0
 10
35.8
 20
0.0
 10
36.0
 20
0.0
 10
36.2
 20
0.0
 10
36.4
 20
0.0
 10
36.6
 20
0.0
 10
36.8
 20
0.0
 10
37.0
 20
0.0
 10
37.2
 20
0.115
 10
37.4
 20
0.117
 10
37.6
 20
0.109
 10
37.8
 20
0.0
 10
38.0
 20
0.0
 10
38.0
 20
0.0
 10
38.0
 20
-2.0
 10
28.25
 20
-2.0
 10
28.25
 20
-1.2
 10
27.75
 20
-1.2
 10
27.75
 20
-2.0
 10
10.25
 20
-2.0
  0
TEXT
  5
8C
330
17
100
AcDbEntity
  8
0
 62
3
100
AcDbText
 10
4.0
 20
-1.3
 30
0.0
 40
0.5
  1
241
  7
LiberationSerif
 72
2
 11
4.0
 21
-1.3
 31
0.0
100
AcDbText
 73
2
  0
LWPOLYLINE
  5
8D
330
17
100
AcDbEntity
  8
SSNP
100
AcDbPolyline
 90
209
 70
0
 10
10.25
 20
2.7300000000000004
 10
10.25
 20
3.5300000000000002
 10
9.75
 20
3.5300000000000002
 10
9.75
 20
2.7300000000000004
 10
-1.0
 20
2.7300000000000004
 10
-1.0
 20
4.73
 10
-1.0
 20
4.73
 10
-0.8
 20
4.73
 10
-0.6
 20
4.73
 10
-0.4
 20
4.73
 10
-0.2
 20
4.73
 10
0.0
 20
4.73
 10
0.2
 20
4.73
 10
0.4
 20
4.73
 10
0.6
 20
4.73
 10
0.8
 20
4.73
 10
1.0
 20
4.73
 10
1.2
 20
4.73
 10
1.4
 20
4.8870000000000005
 10
1.6
 20
4.994000000000001
 10
1.8
 20
5.010000000000001
 10
2.0
 20
5.055000000000001
 10
2.2
 20
5.11
 10
2.4
 20
5.158
 10
2.6
 20
5.25
 10
2.8
 20
5.277
 10
3.0
 20
5.337000000000001
 10
3.2
 20
5.432
 10
3.4
 20
5.554
 10
3.6
 20
5.611000000000001
 10
3.8
 20
5.699000000000001
 10
4.0
 20
5.680000000000001
 10
4.2
 20
5.684
 10
4.4
 20
5.75
 10
4.6
 20
5.8340000000000005
 10
4.8
 20
5.926
 10
5.0
 20
6.016
 10
5.2
 20
6.023000000000001
 10
5.4
 20
6.0680000000000005
 10
5.6
 20
6.065
 10
5.8
 20
6.086
 10
6.0
 20
6.194000000000001
 10
6.2
 20
6.317
 10
6.4
 20
6.381
 10
6.6
 20
6.438000000000001
 10
6.8
 20
6.501
 10
7.0
 20
6.553000000000001
 10
7.2
 20
6.518000000000001
 10
7.4
 20
6.506
 10
7.6
 20
6.654
 10
7.8
 20
6.621
 10
8.0
 20
6.6160000000000005
 10
8.2
 20
6.617000000000001
 10
8.4
 20
6.6610000000000005
 10
8.6
 20
6.69
 10
8.8
 20
6.692
 10
9.0
 20
6.779
 10
9.2
 20
6.890000000000001
 10
9.4
 20
6.921
 10
9.6
 20
6.914000000000001
 10
9.8
 20
6.9590000000000005
 10
10.0
 20
6.945
 10
10.2
 20
6.882000000000001
 10
10.4
 20
6.824
 10
10.6
 20
6.859
 10
10.8
 20
6.861000000000001
 10
11.0
 20
6.847
 10
11.2
 20
6.8100000000000005
 10
11.4
 20
6.876
 10
11.6
 20
6.847
 10
11.8
 20
6.773000000000001
 10
12.0
 20
6.73
 10
12.2
 20
6.682
 10
12.4
 20
6.626
 10
12.6
 20
6.577
 10
12.8
 20
6.501
 10
13.0
 20
6.421
 10
13.2
 20
6.339
 10
13.4
 20
6.235
 10
13.6
 20
6.138
 10
13.8
 20
6.087000000000001
 10
14.0
 20
6.034000000000001
 10
14.2
 20
6.046
 10
14.4
 20
5.9990000000000006
 10
14.6
 20
5.909000000000001
 10
14.8
 20
5.8340000000000005
 10
15.0
 20
5.869000000000001
 10
15.2
 20
5.877000000000001
 10
15.4
 20
5.848000000000001
 10
15.6
 20
5.763
 10
15.8
 20
5.688000000000001
 10
16.0
 20
5.612
 10
16.2
 20
5.638000000000001
 10
16.4
 20
5.572
 10
16.6
 20
5.551
 10
16.8
 20
5.555000000000001
 10
17.0
 20
5.593
 10
17.2
 20
5.527
 10
17.4
 20
5.462000000000001
 10
17.6
 20
5.394
 10
17.8
 20
5.307
 10
18.0
 20
5.266
 10
18.2
 20
5.186000000000001
 10
18.4
 20
5.167000000000001
 10
18.6
 20
5.238
 10
18.8
 20
5.325
 10
19.0
 20
5.415000000000001
 10
19.2
 20
5.478000000000001
 10
19.4
 20
5.546
 10
19.6
 20
5.527
 10
19.8
 20
5.476000000000001
 10
20.0
 20
5.394
 10
20.2
 20
5.361000000000001
 10
20.4
 20
5.32
 10
20.6
 20
5.340000000000001
 10
20.8
 20
5.382000000000001
 10
21.0
 20
5.3660000000000005
 10
21.2
 20
5.300000000000001
 10
21.4
 20
5.228000000000001
 10
21.6
 20
5.158
 10
21.8
 20
5.1000000000000005
 10
22.0
 20
5.054
 10
22.2
 20
5.015000000000001
 10
22.4
 20
4.976000000000001
 10
22.6
 20
4.946000000000001
 10
22.8
 20
4.956
 10
23.0
 20
4.953
 10
23.2
 20
4.946000000000001
 10
23.4
 20
4.957000000000001
 10
23.6
 20
4.99
 10
23.8
 20
5.047000000000001
 10
24.0
 20
5.048
 10
24.2
 20
5.065
 10
24.4
 20
5.095000000000001
 10
24.6
 20
5.054
 10
24.8
 20
5.002000000000001
 10
25.0
 20
4.944000000000001
 10
25.2
 20
4.8870000000000005
 10
25.4
 20
4.872000000000001
 10
25.6
 20
4.835000000000001
 10
25.8
 20
4.73
 10
26.0
 20
4.73
 10
26.2
 20
4.73
 10
26.4
 20
4.73
 10
26.6
 20
4.73
 10
26.8
 20
4.73
 10
27.0
 20
4.73
 10
27.2
 20
4.73
 10
27.4
 20
4.73
 10
27.6
 20
4.73
 10
27.8
 20
4.73
 10
28.0
 20
4.73
 10
28.2
 20
4.73
 10
28.4
 20
4.73
 10
28.6
 20
4.73
 10
28.8
 20
4.73
 10
29.0
 20
4.73
 10
29.2
 20
4.73
 10
29.4
 20
4.73
 10
29.6
 20
4.73
 10
29.8
 20
4.73
 10
30.0
 20
4.73
 10
30.2
 20
4.73
 10
30.4
 20
4.73
 10
30.6
 20
4.73
 10
30.8
 20
4.73
 10
31.0
 20
4.73
 10
31.2
 20
4.73
 10
31.4
 20
4.73
 10
31.6
 20
4.73
 10
31.8
 20
4.73
 10
32.0
 20
4.73
 10
32.2
 20
4.73
 10
32.4
 20
4.73
 10
32.6
 20
4.73
 10
32.8
 20
4.73
 10
33.0
 20
4.73
 10
33.2
 20
4.73
 10
33.4
 20
4.73
 10
33.6
 20
4.73
 10
33.8
 20
4.73
 10
34.0
 20
4.73
 10
34.2
 20
4.73
 10
34.4
 20
4.73
 10
34.6
 20
4.73
 10
34.8
 20
4.73
 10
35.0
 20
4.73
 10
35.2
 20
4.73
 10
35.4
 20
4.73
 10
35.6
 20
4.73
 10
35.8
 20
4.73
 10
36.0
 20
4.73
 10
36.2
 20
4.73
 10
36.4
 20
4.73
 10
36.6
 20
4.73
 10
36.8
 20
4.73
 10
37.0
 20
4.73
 10
37.2
 20
4.73
 10
37.4
 20
4.73
 10
37.6
 20
4.73
 10
37.8
 20
4.73
 10
38.0
 20
4.73
 10
38.0
 20
4.73
 10
38.0
 20
2.7300000000000004
 10
28.25
 20
2.7300000000000004
 10
28.25
 20
3.5300000000000002
 10
27.75
 20
3.5300000000000002
 10
27.75
 20
2.7300000000000004
 10
10.25
 20
2.7300000000000004
  0
TEXT
  5
8E
330
17
100
AcDbEntity
  8
0
 62
3
100
AcDbText
 10
4.0
 20
3.4300000000000006
 30
0.0
 40
0.5
  1
242
  7
LiberationSerif
 72
2
 11
4.0
 21
3.4300000000000006
 31
0.0
100
AcDbText
 73
2
  0
LWPOLYLINE
  5
8F
330
17
100
AcDbEntity
  8
SSNP
100
AcDbPolyline
 90
209
 70
0
 10
10.25
 20
7.459
 10
10.25
 20
8.259
 10
9.75
 20
8.259
 10
9.75
 20
7.459
 10
-1.0
 20
7.459
 10
-1.0
 20
9.459
 10
-1.0
 20
9.459
 10
-0.8
 20
9.459
 10
-0.6
 20
9.459
 10
-0.4
 20
9.459
 10
-0.2
 20
9.459
 10
0.0
 20
9.459
 10
0.2
 20
9.459
 10
0.4
 20
9.459
 10
0.6
 20
9.459
 10
0.8
 20
9.459
 10
1.0
 20
9.459
 10
1.2
 20
9.459
 10
1.4
 20
9.689
 10
1.6
 20
9.7
 10
1.8
 20
9.715
 10
2.0
 20
9.745
 10
2.2
 20
9.79
 10
2.4
 20
9.872
 10
2.6
 20
9.965
 10
2.8
 20
10.011
 10
3.0
 20
10.093
 10
3.2
 20
10.177
 10
3.4
 20
10.286999999999999
 10
3.6
 20
10.321
 10
3.8
 20
10.383
 10
4.0
 20
10.395
 10
4.2
 20
10.407
 10
4.4
 20
10.449
 10
4.6
 20
10.52
 10
4.8
 20
10.571
 10
5.0
 20
10.647
 10
5.2
 20
10.712
 10
5.4
 20
10.735
 10
5.6
 20
10.761
 10
5.8
 20
10.796
 10
6.0
 20
10.881
 10
6.2
 20
11.016
 10
6.4
 20
11.147
 10
6.6
 20
11.132
 10
6.8
 20
11.168
 10
7.0
 20
11.244
 10
7.2
 20
11.285
 10
7.4
 20
11.231
 10
7.6
 20
11.312999999999999
 10
7.8
 20
11.368
 10
8.0
 20
11.347999999999999
 10
8.2
 20
11.323
 10
8.4
 20
11.347
 10
8.6
 20
11.376999999999999
 10
8.8
 20
11.4
 10
9.0
 20
11.427999999999999
 10
9.2
 20
11.565999999999999
 10
9.4
 20
11.664
 10
9.6
 20
11.652
 10
9.8
 20
11.66
 10
10.0
 20
11.641
 10
10.2
 20
11.716999999999999
 10
10.4
 20
11.654
 10
10.6
 20
11.597999999999999
 10
10.8
 20
11.607
 10
11.0
 20
11.629
 10
11.2
 20
11.576
 10
11.4
 20
11.556999999999999
 10
11.6
 20
11.562999999999999
 10
11.8
 20
11.533
 10
12.0
 20
11.465
 10
12.2
 20
11.385
 10
12.4
 20
11.323
 10
12.6
 20
11.251
 10
12.8
 20
11.199
 10
13.0
 20
11.108
 10
13.2
 20
11.046
 10
13.4
 20
10.971
 10
13.6
 20
10.866999999999999
 10
13.8
 20
10.745
 10
14.0
 20
10.706999999999999
 10
14.2
 20
10.658
 10
14.4
 20
10.654
 10
14.6
 20
10.594
 10
14.8
 20
10.498999999999999
 10
15.0
 20
10.481
 10
15.2
 20
10.497
 10
15.4
 20
10.491999999999999
 10
15.6
 20
10.523
 10
15.8
 20
10.449
 10
16.0
 20
10.411
 10
16.2
 20
10.354
 10
16.4
 20
10.339
 10
16.6
 20
10.365
 10
16.8
 20
10.302999999999999
 10
17.0
 20
10.283
 10
17.2
 20
10.227
 10
17.4
 20
10.165
 10
17.6
 20
10.081999999999999
 10
17.8
 20
10.064
 10
18.0
 20
9.998999999999999
 10
18.2
 20
9.9
 10
18.4
 20
9.883
 10
18.6
 20
9.923
 10
18.8
 20
9.981
 10
19.0
 20
10.067
 10
19.2
 20
10.139
 10
19.4
 20
10.231
 10
19.6
 20
10.187
 10
19.8
 20
10.164
 10
20.0
 20
10.100999999999999
 10
20.2
 20
10.035
 10
20.4
 20
10.003
 10
20.6
 20
9.981
 10
20.8
 20
10.015
 10
21.0
 20
10.045
 10
21.2
 20
10.032
 10
21.4
 20
9.985
 10
21.6
 20
9.911
 10
21.8
 20
9.84
 10
22.0
 20
9.762
 10
22.2
 20
9.706999999999999
 10
22.4
 20
9.698
 10
22.6
 20
9.677999999999999
 10
22.8
 20
9.651
 10
23.0
 20
9.690999999999999
 10
23.2
 20
9.679
 10
23.4
 20
9.673
 10
23.6
 20
9.671
 10
23.8
 20
9.719
 10
24.0
 20
9.706
 10
24.2
 20
9.699
 10
24.4
 20
9.763
 10
24.6
 20
9.779
 10
24.8
 20
9.731
 10
25.0
 20
9.596
 10
25.2
 20
9.578999999999999
 10
25.4
 20
9.459
 10
25.6
 20
9.459
 10
25.8
 20
9.459
 10
26.0
 20
9.459
 10
26.2
 20
9.459
 10
26.4
 20
9.459
 10
26.6
 20
9.459
 10
26.8
 20
9.459
 10
27.0
 20
9.459
 10
27.2
 20
9.459
 10
27.4
 20
9.459
 10
27.6
 20
9.459
 10
27.8
 20
9.459
 10
28.0
 20
9.459
 10
28.2
 20
9.459
 10
28.4
 20
9.459
 10
28.6
 20
9.459
 10
28.8
 20
9.459
 10
29.0
 20
9.459
 10
29.2
 20
9.459
 10
29.4
 20
9.459
 10
29.6
 20
9.459
 10
29.8
 20
9.459
 10
30.0
 20
9.459
 10
30.2
 20
9.459
 10
30.4
 20
9.459
 10
30.6
 20
9.459
 10
30.8
 20
9.459
 10
31.0
 20
9.459
 10
31.2
 20
9.459
 10
31.4
 20
9.459
 10
31.6
 20
9.459
 10
31.8
 20
9.459
 10
32.0
 20
9.459
 10
32.2
 20
9.459
 10
32.4
 20
9.459
 10
32.6
 20
9.459
 10
32.8
 20
9.459
 10
33.0
 20
9.459
 10
33.2
 20
9.459
 10
33.4
 20
9.459
 10
33.6
 20
9.459
 10
33.8
 20
9.459
 10
34.0
 20
9.459
 10
34.2
 20
9.459
 10
34.4
 20
9.459
 10
34.6
 20
9.459
 10
34.8
 20
9.459
 10
35.0
 20
9.459
 10
35.2
 20
9.459
 10
35.4
 20
9.459
 10
35.6
 20
9.459
 10
35.8
 20
9.459
 10
36.0
 20
9.459
 10
36.2
 20
9.459
 10
36.4
 20
9.459
 10
36.6
 20
9.459
 10
36.8
 20
9.459
 10
37.0
 20
9.459
 10
37.2
 20
9.459
 10
37.4
 20
9.459
 10
37.6
 20
9.459
 10
37.8
 20
9.459
 10
38.0
 20
9.459
 10
38.0
 20
9.459
 10
38.0
 20
7.459
 10
28.25
 20
7.459
 10
28.25
 20
8.259
 10
27.75
 20
8.259
 10
27.75
 20
7.459
 10
10.25
 20
7.459
  0
TEXT
  5
90
330
17
100
AcDbEntity
  8
0
 62
3
100
AcDbText
 10
4.0
 20
8.158999999999999
 30
0.0
 40
0.5
  1
243
  7
LiberationSerif
 72
2
 11
4.0
 21
8.158999999999999
 31
0.0
100
AcDbText
 73
2
  0
LWPOLYLINE
  5
91
330
17
100
AcDbEntity
  8
SSNP
100
AcDbPolyline
 90
209
 70
0
 10
10.25
 20
12.216999999999999
 10
10.25
 20
13.017
 10
9.75
 20
13.017
 10
9.75
 20
12.216999999999999
 10
-1.0
 20
12.216999999999999
 10
-1.0
 20
14.216999999999999
 10
-1.0
 20
14.216999999999999
 10
-0.8
 20
14.216999999999999
 10
-0.6
 20
14.216999999999999
 10
-0.4
 20
14.216999999999999
 10
-0.2
 20
14.216999999999999
 10
0.0
 20
14.216999999999999
 10
0.2
 20
14.216999999999999
 10
0.4
 20
14.216999999999999
 10
0.6
 20
14.216999999999999
 10
0.8
 20
14.216999999999999
 10
1.0
 20
14.216999999999999
 10
1.2
 20
14.216999999999999
 10
1.4
 20
14.348999999999998
 10
1.6
 20
14.419999999999998
 10
1.8
 20
14.456999999999999
 10
2.0
 20
14.536
 10
2.2
 20
14.617999999999999
 10
2.4
 20
14.681
 10
2.6
 20
14.713
 10
2.8
 20
14.736999999999998
 10
3.0
 20
14.838999999999999
 10
3.2
 20
14.900999999999998
 10
3.4
 20
15.04
 10
3.6
 20
15.081
 10
3.8
 20
15.092999999999998
 10
4.0
 20
15.159999999999998
 10
4.2
 20
15.2
 10
4.4
 20
15.238999999999999
 10
4.6
 20
15.299999999999999
 10
4.8
 20
15.357999999999999
 10
5.0
 20
15.380999999999998
 10
5.2
 20
15.415999999999999
 10
5.4
 20
15.502999999999998
 10
5.6
 20
15.536999999999999
 10
5.8
 20
15.567999999999998
 10
6.0
 20
15.613999999999999
 10
6.2
 20
15.729
 10
6.4
 20
15.844999999999999
 10
6.6
 20
15.947
 10
6.8
 20
15.892999999999999
 10
7.0
 20
15.988
 10
7.2
 20
16.04
 10
7.4
 20
16.067999999999998
 10
7.6
 20
15.969
 10
7.8
 20
16.093999999999998
 10
8.0
 20
16.107999999999997
 10
8.2
 20
16.072
 10
8.4
 20
16.099
 10
8.6
 20
16.11
 10
8.8
 20
16.163
 10
9.0
 20
16.183999999999997
 10
9.2
 20
16.258
 10
9.4
 20
16.349999999999998
 10
9.6
 20
16.424
 10
9.8
 20
16.502
 10
10.0
 20
16.555
 10
10.2
 20
16.49
 10
10.4
 20
16.474999999999998
 10
10.6
 20
16.432
 10
10.8
 20
16.34
 10
11.0
 20
16.357999999999997
 10
11.2
 20
16.307
 10
11.4
 20
16.279
 10
11.6
 20
16.27
 10
11.8
 20
16.268
 10
12.0
 20
16.206
 10
12.2
 20
16.137
 10
12.4
 20
16.055
 10
12.6
 20
15.983999999999998
 10
12.8
 20
15.919999999999998
 10
13.0
 20
15.849999999999998
 10
13.2
 20
15.752999999999998
 10
13.4
 20
15.692999999999998
 10
13.6
 20
15.616999999999999
 10
13.8
 20
15.491999999999999
 10
14.0
 20
15.409999999999998
 10
14.2
 20
15.357999999999999
 10
14.4
 20
15.338
 10
14.6
 20
15.313999999999998
 10
14.8
 20
15.274999999999999
 10
15.0
 20
15.177
 10
15.2
 20
15.152999999999999
 10
15.4
 20
15.158999999999999
 10
15.6
 20
15.204999999999998
 10
15.8
 20
15.221999999999998
 10
16.0
 20
15.192999999999998
 10
16.2
 20
15.143999999999998
 10
16.4
 20
15.116
 10
16.6
 20
15.085999999999999
 10
16.8
 20
15.035999999999998
 10
17.0
 20
15.049
 10
17.2
 20
14.972999999999999
 10
17.4
 20
14.929999999999998
 10
17.6
 20
14.874999999999998
 10
17.8
 20
14.812999999999999
 10
18.0
 20
14.764
 10
18.2
 20
14.688999999999998
 10
18.4
 20
14.634999999999998
 10
18.6
 20
14.626
 10
18.8
 20
14.674999999999999
 10
19.0
 20
14.754
 10
19.2
 20
14.857
 10
19.4
 20
14.938999999999998
 10
19.6
 20
14.895
 10
19.8
 20
14.870999999999999
 10
20.0
 20
14.849999999999998
 10
20.2
 20
14.778999999999998
 10
20.4
 20
14.714999999999998
 10
20.6
 20
14.639
 10
20.8
 20
14.682999999999998
 10
21.0
 20
14.713
 10
21.2
 20
14.719
 10
21.4
 20
14.716999999999999
 10
21.6
 20
14.661999999999999
 10
21.8
 20
14.604
 10
22.0
 20
14.525999999999998
 10
22.2
 20
14.479999999999999
 10
22.4
 20
14.459
 10
22.6
 20
14.453
 10
22.8
 20
14.405
 10
23.0
 20
14.419999999999998
 10
23.2
 20
14.434999999999999
 10
23.4
 20
14.421999999999999
 10
23.6
 20
14.413999999999998
 10
23.8
 20
14.424999999999999
 10
24.0
 20
14.408
 10
24.2
 20
14.406999999999998
 10
24.4
 20
14.406999999999998
 10
24.6
 20
14.470999999999998
 10
24.8
 20
14.368999999999998
 10
25.0
 20
14.364999999999998
 10
25.2
 20
14.36
 10
25.4
 20
14.347
 10
25.6
 20
14.344
 10
25.8
 20
14.341
 10
26.0
 20
14.216999999999999
 10
26.2
 20
14.319999999999999
 10
26.4
 20
14.319999999999999
 10
26.6
 20
14.318
 10
26.8
 20
14.216999999999999
 10
27.0
 20
14.318999999999999
 10
27.2
 20
14.216999999999999
 10
27.4
 20
14.216999999999999
 10
27.6
 20
14.216999999999999
 10
27.8
 20
14.216999999999999
 10
28.0
 20
14.216999999999999
 10
28.2
 20
14.216999999999999
 10
28.4
 20
14.216999999999999
 10
28.6
 20
14.216999999999999
 10
28.8
 20
14.216999999999999
 10
29.0
 20
14.216999999999999
 10
29.2
 20
14.216999999999999
 10
29.4
 20
14.216999999999999
 10
29.6
 20
14.216999999999999
 10
29.8
 20
14.216999999999999
 10
30.0
 20
14.216999999999999
 10
30.2
 20
14.216999999999999
 10
30.4
 20
14.216999999999999
 10
30.6
 20
14.216999999999999
 10
30.8
 20
14.216999999999999
 10
31.0
 20
14.216999999999999
 10
31.2
 20
14.216999999999999
 10
31.4
 20
14.216999999999999
 10
31.6
 20
14.216999999999999
 10
31.8
 20
14.216999999999999
 10
32.0
 20
14.216999999999999
 10
32.2
 20
14.216999999999999
 10
32.4
 20
14.216999999999999
 10
32.6
 20
14.216999999999999
 10
32.8
 20
14.216999999999999
 10
33.0
 20
14.216999999999999
 10
33.2
 20
14.216999999999999
 10
33.4
 20
14.216999999999999
 10
33.6
 20
14.216999999999999
 10
33.8
 20
14.216999999999999
 10
34.0
 20
14.216999999999999
 10
34.2
 20
14.216999999999999
 10
34.4
 20
14.216999999999999
 10
34.6
 20
14.216999999999999
 10
34.8
 20
14.216999999999999
 10
35.0
 20
14.216999999999999
 10
35.2
 20
14.216999999999999
 10
35.4
 20
14.216999999999999
 10
35.6
 20
14.216999999999999
 10
35.8
 20
14.216999999999999
 10
36.0
 20
14.216999999999999
 10
36.2
 20
14.216999999999999
 10
36.4
 20
14.216999999999999
 10
36.6
 20
14.216999999999999
 10
36.8
 20
14.216999999999999
 10
37.0
 20
14.216999999999999
 10
37.2
 20
14.216999999999999
 10
37.4
 20
14.216999999999999
 10
37.6
 20
14.216999999999999
 10
37.8
 20
14.216999999999999
 10
38.0
 20
14.216999999999999
 10
38.0
 20
14.216999999999999
 10
38.0
 20
12.216999999999999
 10
28.25
 20
12.216999999999999
 10
28.25
 20
13.017
 10
27.75
 20
13.017
 10
27.75
 20
12.216999999999999
 10
10.25
 20
12.216999999999999
  0
TEXT
  5
92
330
17
100
AcDbEntity
  8
0
 62
3
100
AcDbText
 10
4.0
 20
12.916999999999998
 30
0.0
 40
0.5
  1
244
  7
LiberationSerif
 72
2
 11
4.0
 21
12.916999999999998
 31
0.0
100
AcDbText
 73
2
  0
LWPOLYLINE
  5
93
330
17
100
AcDbEntity
  8
SSNP
100
AcDbPolyline
 90
209
 70
0
 10
10.25
 20
17.055
 10
10.25
 20
17.855
 10
9.75
 20
17.855
 10
9.75
 20
17.055
 10
-1.0
 20
17.055
 10
-1.0
 20
19.055
 10
-1.0
 20
19.055
 10
-0.8
 20
19.055
 10
-0.6
 20
19.055
 10
-0.4
 20
19.055
 10
-0.2
 20
19.055
 10
0.0
 20
19.055
 10
0.2
 20
19.055
 10
0.4
 20
19.055
 10
0.6
 20
19.055
 10
0.8
 20
19.055
 10
1.0
 20
19.055
 10
1.2
 20
19.055
 10
1.4
 20
19.055
 10
1.6
 20
19.181
 10
1.8
 20
19.293
 10
2.0
 20
19.416
 10
2.2
 20
19.497
 10
2.4
 20
19.528
 10
2.6
 20
19.585
 10
2.8
 20
19.637
 10
3.0
 20
19.693
 10
3.2
 20
19.728
 10
3.4
 20
19.835
 10
3.6
 20
19.942
 10
3.8
 20
19.945
 10
4.0
 20
19.985
 10
4.2
 20
20.027
 10
4.4
 20
20.086
 10
4.6
 20
20.201
 10
4.8
 20
20.22
 10
5.0
 20
20.229
 10
5.2
 20
20.254
 10
5.4
 20
20.305
 10
5.6
 20
20.343
 10
5.8
 20
20.434
 10
6.0
 20
20.46
 10
6.2
 20
20.548
 10
6.4
 20
20.613
 10
6.6
 20
20.7
 10
6.8
 20
20.768
 10
7.0
 20
20.749
 10
7.2
 20
20.833
 10
7.4
 20
20.866
 10
7.6
 20
20.84
 10
7.8
 20
20.811
 10
8.0
 20
20.919
 10
8.2
 20
20.907
 10
8.4
 20
20.898
 10
8.6
 20
20.912
 10
8.8
 20
20.961
 10
9.0
 20
20.980999999999998
 10
9.2
 20
21.069
 10
9.4
 20
21.17
 10
9.6
 20
21.231
 10
9.8
 20
21.284
 10
10.0
 20
21.367
 10
10.2
 20
21.354
 10
10.4
 20
21.311
 10
10.6
 20
21.27
 10
10.8
 20
21.201
 10
11.0
 20
21.134999999999998
 10
11.2
 20
21.117
 10
11.4
 20
21.09
 10
11.6
 20
21.073
 10
11.8
 20
21.057
 10
12.0
 20
21.009
 10
12.2
 20
20.955
 10
12.4
 20
20.88
 10
12.6
 20
20.798
 10
12.8
 20
20.71
 10
13.0
 20
20.62
 10
13.2
 20
20.576
 10
13.4
 20
20.464
 10
13.6
 20
20.439
 10
13.8
 20
20.326999999999998
 10
14.0
 20
20.265
 10
14.2
 20
20.151
 10
14.4
 20
20.093
 10
14.6
 20
20.08
 10
14.8
 20
20.029
 10
15.0
 20
20.005
 10
15.2
 20
20.001
 10
15.4
 20
19.918
 10
15.6
 20
19.947
 10
15.8
 20
19.975
 10
16.0
 20
19.953
 10
16.2
 20
20.012999999999998
 10
16.4
 20
19.965
 10
16.6
 20
19.921
 10
16.8
 20
19.877
 10
17.0
 20
19.847
 10
17.2
 20
19.819
 10
17.4
 20
19.807
 10
17.6
 20
19.769
 10
17.8
 20
19.723
 10
18.0
 20
19.639
 10
18.2
 20
19.554
 10
18.4
 20
19.495
 10
18.6
 20
19.469
 10
18.8
 20
19.46
 10
19.0
 20
19.54
 10
19.2
 20
19.631
 10
19.4
 20
19.707
 10
19.6
 20
19.728
 10
19.8
 20
19.644
 10
20.0
 20
19.599
 10
20.2
 20
19.575
 10
20.4
 20
19.527
 10
20.6
 20
19.444
 10
20.8
 20
19.447
 10
21.0
 20
19.482
 10
21.2
 20
19.453
 10
21.4
 20
19.472
 10
21.6
 20
19.441
 10
21.8
 20
19.386
 10
22.0
 20
19.364
 10
22.2
 20
19.311
 10
22.4
 20
19.271
 10
22.6
 20
19.254
 10
22.8
 20
19.277
 10
23.0
 20
19.232
 10
23.2
 20
19.25
 10
23.4
 20
19.258
 10
23.6
 20
19.249
 10
23.8
 20
19.246
 10
24.0
 20
19.24
 10
24.2
 20
19.205
 10
24.4
 20
19.218
 10
24.6
 20
19.219
 10
24.8
 20
19.215
 10
25.0
 20
19.213
 10
25.2
 20
19.197
 10
25.4
 20
19.222
 10
25.6
 20
19.23
 10
25.8
 20
19.171
 10
26.0
 20
19.159
 10
26.2
 20
19.159
 10
26.4
 20
19.157
 10
26.6
 20
19.055
 10
26.8
 20
19.055
 10
27.0
 20
19.161
 10
27.2
 20
19.161
 10
27.4
 20
19.159
 10
27.6
 20
19.158
 10
27.8
 20
19.055
 10
28.0
 20
19.055
 10
28.2
 20
19.055
 10
28.4
 20
19.055
 10
28.6
 20
19.055
 10
28.8
 20
19.055
 10
29.0
 20
19.055
 10
29.2
 20
19.055
 10
29.4
 20
19.055
 10
29.6
 20
19.055
 10
29.8
 20
19.055
 10
30.0
 20
19.055
 10
30.2
 20
19.055
 10
30.4
 20
19.055
 10
30.6
 20
19.055
 10
30.8
 20
19.055
 10
31.0
 20
19.055
 10
31.2
 20
19.055
 10
31.4
 20
19.055
 10
31.6
 20
19.055
 10
31.8
 20
19.055
 10
32.0
 20
19.055
 10
32.2
 20
19.055
 10
32.4
 20
19.055
 10
32.6
 20
19.055
 10
32.8
 20
19.055
 10
33.0
 20
19.055
 10
33.2
 20
19.055
 10
33.4
 20
19.055
 10
33.6
 20
19.055
 10
33.8
 20
19.055
 10
34.0
 20
19.055
 10
34.2
 20
19.055
 10
34.4
 20
19.055
 10
34.6
 20
19.055
 10
34.8
 20
19.055
 10
35.0
 20
19.055
 10
35.2
 20
19.055
 10
35.4
 20
19.055
 10
35.6
 20
19.055
 10
35.8
 20
19.055
 10
36.0
 20
19.055
 10
36.2
 20
19.055
 10
36.4
 20
19.055
 10
36.6
 20
19.055
 10
36.8
 20
19.055
 10
37.0
 20
19.055
 10
37.2
 20
19.055
 10
37.4
 20
19.055
 10
37.6
 20
19.055
 10
37.8
 20
19.055
 10
38.0
 20
19.055
 10
38.0
 20
19.055
 10
38.0
 20
17.055
 10
28.25
 20
17.055
 10
28.25
 20
17.855
 10
27.75
 20
17.855
 10
27.75
 20
17.055
 10
10.25
 20
17.055
  0
TEXT
  5
94
330
17
100
AcDbEntity
  8
0
 62
3
100
AcDbText
 10
4.0
 20
17.755
 30
0.0
 40
0.5
  1
245
  7
LiberationSerif
 72
2
 11
4.0
 21
17.755
 31
0.0
100
AcDbText
 73
2
  0
LWPOLYLINE
  5
95
330
17
100
AcDbEntity
  8
SSNP
100
AcDbPolyline
 90
209
 70
0
 10
10.25
 20
21.867
 10
10.25
 20
22.667
 10
9.75
 20
22.667
 10
9.75
 20
21.867
 10
-1.0
 20
21.867
 10
-1.0
 20
23.867
 10
-1.0
 20
23.867
 10
-0.8
 20
23.867
 10
-0.6
 20
23.867
 10
-0.4
 20
23.867
 10
-0.2
 20
23.867
 10
0.0
 20
23.867
 10
0.2
 20
23.867
 10
0.4
 20
23.867
 10
0.6
 20
23.867
 10
0.8
 20
23.867
 10
1.0
 20
23.867
 10
1.2
 20
23.867
 10
1.4
 20
23.867
 10
1.6
 20
23.867
 10
1.8
 20
24.127000000000002
 10
2.0
 20
24.264
 10
2.2
 20
24.322
 10
2.4
 20
24.374000000000002
 10
2.6
 20
24.421
 10
2.8
 20
24.523
 10
3.0
 20
24.539
 10
3.2
 20
24.541
 10
3.4
 20
24.613
 10
3.6
 20
24.699
 10
3.8
 20
24.721
 10
4.0
 20
24.792
 10
4.2
 20
24.817
 10
4.4
 20
24.918
 10
4.6
 20
24.994
 10
4.8
 20
25.008000000000003
 10
5.0
 20
25.034000000000002
 10
5.2
 20
25.066000000000003
 10
5.4
 20
25.107
 10
5.6
 20
25.165
 10
5.8
 20
25.213
 10
6.0
 20
25.254
 10
6.2
 20
25.298000000000002
 10
6.4
 20
25.412
 10
6.6
 20
25.443
 10
6.8
 20
25.546
 10
7.0
 20
25.62
 10
7.2
 20
25.679000000000002
 10
7.4
 20
25.646
 10
7.6
 20
25.654
 10
7.8
 20
25.612000000000002
 10
8.0
 20
25.647000000000002
 10
8.2
 20
25.662
 10
8.4
 20
25.701
 10
8.6
 20
25.728
 10
8.8
 20
25.744
 10
9.0
 20
25.748
 10
9.2
 20
25.763
 10
9.4
 20
25.916
 10
9.6
 20
25.965
 10
9.8
 20
26.074
 10
10.0
 20
26.152
 10
10.2
 20
26.123
 10
10.4
 20
26.109
 10
10.6
 20
26.066000000000003
 10
10.8
 20
26.01
 10
11.0
 20
25.972
 10
11.2
 20
25.92
 10
11.4
 20
25.877000000000002
 10
11.6
 20
25.853
 10
11.8
 20
25.842000000000002
 10
12.0
 20
25.812
 10
12.2
 20
25.764
 10
12.4
 20
25.697000000000003
 10
12.6
 20
25.614
 10
12.8
 20
25.521
 10
13.0
 20
25.415
 10
13.2
 20
25.291
 10
13.4
 20
25.182000000000002
 10
13.6
 20
25.124000000000002
 10
13.8
 20
25.080000000000002
 10
14.0
 20
25.002000000000002
 10
14.2
 20
25.012
 10
14.4
 20
24.96
 10
14.6
 20
24.941000000000003
 10
14.8
 20
24.926000000000002
 10
15.0
 20
24.891000000000002
 10
15.2
 20
24.821
 10
15.4
 20
24.761
 10
15.6
 20
24.701
 10
15.8
 20
24.69
 10
16.0
 20
24.721
 10
16.2
 20
24.819000000000003
 10
16.4
 20
24.781000000000002
 10
16.6
 20
24.695
 10
16.8
 20
24.612000000000002
 10
17.0
 20
24.591
 10
17.2
 20
24.597
 10
17.4
 20
24.639
 10
17.6
 20
24.592000000000002
 10
17.8
 20
24.538
 10
18.0
 20
24.439
 10
18.2
 20
24.381
 10
18.4
 20
24.347
 10
18.6
 20
24.328
 10
18.8
 20
24.243000000000002
 10
19.0
 20
24.318
 10
19.2
 20
24.379
 10
19.4
 20
24.44
 10
19.6
 20
24.496000000000002
 10
19.8
 20
24.435000000000002
 10
20.0
 20
24.359
 10
20.2
 20
24.293
 10
20.4
 20
24.328
 10
20.6
 20
24.299
 10
20.8
 20
24.231
 10
21.0
 20
24.217000000000002
 10
21.2
 20
24.179000000000002
 10
21.4
 20
24.189
 10
21.6
 20
24.163
 10
21.8
 20
24.123
 10
22.0
 20
24.108
 10
22.2
 20
24.106
 10
22.4
 20
24.122
 10
22.6
 20
24.109
 10
22.8
 20
24.102
 10
23.0
 20
24.092000000000002
 10
23.2
 20
24.074
 10
23.4
 20
24.078
 10
23.6
 20
24.068
 10
23.8
 20
24.034000000000002
 10
24.0
 20
24.053
 10
24.2
 20
24.024
 10
24.4
 20
24.043
 10
24.6
 20
24.042
 10
24.8
 20
24.03
 10
25.0
 20
24.042
 10
25.2
 20
24.125
 10
25.4
 20
24.131
 10
25.6
 20
24.061
 10
25.8
 20
23.995
 10
26.0
 20
23.991
 10
26.2
 20
23.867
 10
26.4
 20
23.867
 10
26.6
 20
23.969
 10
26.8
 20
23.973000000000003
 10
27.0
 20
23.973000000000003
 10
27.2
 20
23.971
 10
27.4
 20
23.973000000000003
 10
27.6
 20
23.975
 10
27.8
 20
23.967000000000002
 10
28.0
 20
23.867
 10
28.2
 20
23.867
 10
28.4
 20
23.867
 10
28.6
 20
23.867
 10
28.8
 20
23.867
 10
29.0
 20
23.867
 10
29.2
 20
23.867
 10
29.4
 20
23.867
 10
29.6
 20
23.867
 10
29.8
 20
23.867
 10
30.0
 20
23.867
 10
30.2
 20
23.867
 10
30.4
 20
23.867
 10
30.6
 20
23.867
 10
30.8
 20
23.867
 10
31.0
 20
23.867
 10
31.2
 20
23.867
 10
31.4
 20
23.867
 10
31.6
 20
23.867
 10
31.8
 20
23.867
 10
32.0
 20
23.867
 10
32.2
 20
23.867
 10
32.4
 20
23.867
 10
32.6
 20
23.867
 10
32.8
 20
23.867
 10
33.0
 20
23.867
 10
33.2
 20
23.867
 10
33.4
 20
23.867
 10
33.6
 20
23.867
 10
33.8
 20
23.867
 10
34.0
 20
23.867
 10
34.2
 20
23.867
 10
34.4
 20
23.867
 10
34.6
 20
23.867
 10
34.8
 20
23.867
 10
35.0
 20
23.867
 10
35.2
 20
23.867
 10
35.4
 20
23.867
 10
35.6
 20
23.867
 10
35.8
 20
23.867
 10
36.0
 20
23.867
 10
36.2
 20
23.867
 10
36.4
 20
23.867
 10
36.6
 20
23.867
 10
36.8
 20
23.867
 10
37.0
 20
23.867
 10
37.2
 20
23.867
 10
37.4
 20
23.867
 10
37.6
 20
23.867
 10
37.8
 20
23.867
 10
38.0
 20
23.867
 10
38.0
 20
23.867
 10
38.0
 20
21.867
 10
28.25
 20
21.867
 10
28.25
 20
22.667
 10
27.75
 20
22.667
 10
27.75
 20
21.867
 10
10.25
 20
21.867
  0
TEXT
  5
96
330
17
100
AcDbEntity
  8
0
 62
3
100
AcDbText
 10
4.0
 20
22.567
 30
0.0
 40
0.5
  1
246
  7
LiberationSerif
 72
2
 11
4.0
 21
22.567
 31
0.0
100
AcDbText
 73
2
  0
ENDSEC
  0
SECTION
  2
OBJECTS
  0
DICTIONARY
  5
A
330
0
100
AcDbDictionary
281
1
  3
ACAD_COLOR
350
B
  3
ACAD_GROUP
350
C
  3
ACAD_LAYOUT
350
D
  3
ACAD_MATERIAL
350
E
  3
ACAD_MLEADERSTYLE
350
F
  3
ACAD_MLINESTYLE
350
10
  3
ACAD_PLOTSETTINGS
350
11
  3
ACAD_PLOTSTYLENAME
350
12
  3
ACAD_SCALELIST
350
14
  3
ACAD_TABLESTYLE
350
15
  3
ACAD_VISUALSTYLE
350
16
  3
EZDXF_META
350
2D
  0
DICTIONARY
  5
B
330
A
100
AcDbDictionary
281
1
  0
DICTIONARY
  5
C
330
A
100
AcDbDictionary
281
1
  0
DICTIONARY
  5
D
330
A
100
AcDbDictionary
281
1
  3
Model
350
1A
  3
Layout1
350
1E
  0
DICTIONARY
  5
E
330
A
100
AcDbDictionary
281
1
  3
ByBlock
350
1F
  3
ByLayer
350
20
  3
Global
350
21
  0
DICTIONARY
  5
F
330
A
100
AcDbDictionary
281
1
  3
Standard
350
2C
  0
DICTIONARY
  5
10
330
A
100
AcDbDictionary
281
1
  3
Standard
350
22
  0
DICTIONARY
  5
11
330
A
100
AcDbDictionary
281
1
  0
ACDBDICTIONARYWDFLT
  5
12
330
A
100
AcDbDictionary
281
1
  3
Normal
350
13
100
AcDbDictionaryWithDefault
340
13
  0
ACDBPLACEHOLDER
  5
13
330
12
  0
DICTIONARY
  5
14
330
A
100
AcDbDictionary
281
1
  0
DICTIONARY
  5
15
330
A
100
AcDbDictionary
281
1
  0
DICTIONARY
  5
16
330
A
100
AcDbDictionary
281
1
  3
2dWireframe
350
5A
  3
Basic
350
5B
  3
Brighten
350
5C
  3
ColorChange
350
5D
  3
Conceptual
350
5E
  3
Dim
350
5F
  3
EdgeColorOff
350
60
  3
Facepattern
350
61
  3
Flat
350
62
  3
FlatWithEdges
350
63
  3
Gouraud
350
64
  3
GouraudWithEdges
350
65
  3
Hidden
350
66
  3
JitterOff
350
67
  3
Linepattern
350
68
  3
Modeling
350
69
  3
OverhangOff
350
6A
  3
Realistic
350
6B
  3
Shaded
350
6C
  3
Shaded with edges
350
6D
  3
Shades of Gray
350
6E
  3
Sketchy
350
6F
  3
Thicken
350
70
  3
Wireframe
350
71
  3
X-Ray
350
72
  0
LAYOUT
  5
1A
330
D
100
AcDbPlotSettings
  1

  2
Adobe PDF
  4
A3
  6

 40
7.5
 41
20.0
 42
7.5
 43
20.0
 44
420.0
 45
297.0
 46
0.0
 47
0.0
 48
0.0
 49
0.0
140
0.0
141
0.0
142
1.0
143
1.0
 70
1024
 72
1
 73
1
 74
5
  7

 75
16
 76
0
 77
2
 78
300
147
1.0
148
0.0
149
0.0
100
AcDbLayout
  1
Model
 70
1
 71
0
 10
0.0
 20
0.0
 11
420.0
 21
297.0
 12
0.0
 22
0.0
 32
0.0
 14
1e+20
 24
1e+20
 34
1e+20
 15
-1e+20
 25
-1e+20
 35
-1e+20
146
0.0
 13
0.0
 23
0.0
 33
0.0
 16
1.0
 26
0.0
 36
0.0
 17
0.0
 27
1.0
 37
0.0
 76
1
330
17
  0
LAYOUT
  5
1E
330
D
100
AcDbPlotSettings
  1

  2
Adobe PDF
  4
A3
  6

 40
7.5
 41
20.0
 42
7.5
 43
20.0
 44
420.0
 45
297.0
 46
0.0
 47
0.0
 48
0.0
 49
0.0
140
0.0
141
0.0
142
1.0
143
1.0
 70
0
 72
1
 73
1
 74
5
  7

 75
16
 76
0
 77
2
 78
300
147
1.0
148
0.0
149
0.0
100
AcDbLayout
  1
Layout1
 70
1
 71
1
 10
0.0
 20
0.0
 11
420.0
 21
297.0
 12
0.0
 22
0.0
 32
0.0
 14
1e+20
 24
1e+20
 34
1e+20
 15
-1e+20
 25
-1e+20
 35
-1e+20
146
0.0
 13
0.0
 23
0.0
 33
0.0
 16
1.0
 26
0.0
 36
0.0
 17
0.0
 27
1.0
 37
0.0
 76
1
330
1B
  0
MATERIAL
  5
1F
102
{ACAD_REACTORS
330
E
102
}
330
E
100
AcDbMaterial
  1
ByBlock
  2

 70
0
 40
1.0
 71
1
 41
1.0
 91
-1023410177
 42
1.0
 72
1
  3

 73
1
 74
1
 75
1
 44
0.5
 73
0
 45
1.0
 46
1.0
 77
1
  4

 78
1
 79
1
170
1
 48
1.0
171
1
  6

172
1
173
1
174
1
140
1.0
141
1.0
175
1
  7

176
1
177
1
178
1
143
1.0
179
1
  8

270
1
271
1
272
1
145
1.0
146
1.0
273
1
  9

274
1
275
1
276
1
 42
1.0
 72
1
  3

 73
1
 74
1
 75
1
 94
63
  0
MATERIAL
  5
20
102
{ACAD_REACTORS
330
E
102
}
330
E
100
AcDbMaterial
  1
ByLayer
  2

 70
0
 40
1.0
 71
1
 41
1.0
 91
-1023410177
 42
1.0
 72
1
  3

 73
1
 74
1
 75
1
 44
0.5
 73
0
 45
1.0
 46
1.0
 77
1
  4

 78
1
 79
1
170
1
 48
1.0
171
1
  6

172
1
173
1
174
1
140
1.0
141
1.0
175
1
  7

176
1
177
1
178
1
143
1.0
179
1
  8

270
1
271
1
272
1
145
1.0
146
1.0
273
1
  9

274
1
275
1
276
1
 42
1.0
 72
1
  3

 73
1
 74
1
 75
1
 94
63
  0
MATERIAL
  5
21
102
{ACAD_REACTORS
330
E
102
}
330
E
100
AcDbMaterial
  1
Global
  2

 70
0
 40
1.0
 71
1
 41
1.0
 91
-1023410177
 42
1.0
 72
1
  3

 73
1
 74
1
 75
1
 44
0.5
 73
0
 45
1.0
 46
1.0
 77
1
  4

 78
1
 79
1
170
1
 48
1.0
171
1
  6

172
1
173
1
174
1
140
1.0
141
1.0
175
1
  7

176
1
177
1
178
1
143
1.0
179
1
  8

270
1
271
1
272
1
145
1.0
146
1.0
273
1
  9

274
1
275
1
276
1
 42
1.0
 72
1
  3

 73
1
 74
1
 75
1
 94
63
  0
MLINESTYLE
  5
22
102
{ACAD_REACTORS
330
10
102
}
330
10
100
AcDbMlineStyle
  2
Standard
 70
0
  3

 62
256
 51
90.0
 52
90.0
 71
2
 49
0.5
 62
256
  6
BYLAYER
 49
-0.5
 62
256
  6
BYLAYER
  0
MLEADERSTYLE
  5
2C
102
{ACAD_REACTORS
330
F
102
}
330
F
100
AcDbMLeaderStyle
179
2
170
2
171
1
172
0
 90
2
 40
0.0
 41
0.0
173
1
 91
-1056964608
 92
-2
290
1
 42
2.0
291
1
 43
8.0
  3
Standard
 44
4.0
300

342
29
174
1
175
1
176
0
178
1
 93
-1056964608
 45
4.0
292
0
297
0
 46
4.0
 94
-1056964608
 47
1.0
 49
1.0
140
1.0
294
1
141
0.0
177
0
142
1.0
295
0
296
0
143
3.75
271
0
272
9
273
9
  0
DICTIONARY
  5
2D
330
A
100
AcDbDictionary
280
1
281
1
  3
CREATED_BY_EZDXF
350
2E
  3
WRITTEN_BY_EZDXF
350
99
  0
DICTIONARYVAR
  5
2E
330
2D
100
DictionaryVariables
280
0
  1
0.17.1 @ 2021-12-25T13:46:59.533059+00:00
  0
VISUALSTYLE
  5
5A
102
{ACAD_REACTORS
330
16
102
}
330
16
100
AcDbVisualStyle
  2
2dWireframe
 70
4
 90
0
 40
0.6
 62
7
290
0
291
0
  0
VISUALSTYLE
  5
5B
102
{ACAD_REACTORS
330
16
102
}
330
16
100
AcDbVisualStyle
  2
Basic
 70
7
 90
1
 40
0.6
 62
7
290
0
291
1
  0
VISUALSTYLE
  5
5C
102
{ACAD_REACTORS
330
16
102
}
330
16
100
AcDbVisualStyle
  2
Brighten
 70
12
 90
2
 40
0.6
 62
7
290
0
291
1
  0
VISUALSTYLE
  5
5D
102
{ACAD_REACTORS
330
16
102
}
330
16
100
AcDbVisualStyle
  2
ColorChange
 70
16
 90
2
 40
0.6
 62
8
290
0
291
1
  0
VISUALSTYLE
  5
5E
102
{ACAD_REACTORS
330
16
102
}
330
16
100
AcDbVisualStyle
  2
Conceptual
 70
9
 90
3
 40
0.6
 62
7
290
0
291
0
  0
VISUALSTYLE
  5
5F
102
{ACAD_REACTORS
330
16
102
}
330
16
100
AcDbVisualStyle
  2
Dim
 70
11
 90
2
 40
0.6
 62
7
290
0
291
1
  0
VISUALSTYLE
  5
60
102
{ACAD_REACTORS
330
16
102
}
330
16
100
AcDbVisualStyle
  2
EdgeColorOff
 70
22
 90
2
 40
0.6
 62
7
290
0
291
1
  0
VISUALSTYLE
  5
61
102
{ACAD_REACTORS
330
16
102
}
330
16
100
AcDbVisualStyle
  2
Facepattern
 70
15
 90
2
 40
0.6
 62
7
290
0
291
1
  0
VISUALSTYLE
  5
62
102
{ACAD_REACTORS
330
16
102
}
330
16
100
AcDbVisualStyle
  2
Flat
 70
0
 90
2
 40
0.6
 62
7
290
0
291
1
  0
VISUALSTYLE
  5
63
102
{ACAD_REACTORS
330
16
102
}
330
16
100
AcDbVisualStyle
  2
FlatWithEdges
 70
1
 90
2
 40
0.6
 62
7
290
0
291
1
  0
VISUALSTYLE
  5
64
102
{ACAD_REACTORS
330
16
102
}
330
16
100
AcDbVisualStyle
  2
Gouraud
 70
2
 90
2
 40
0.6
 62
7
290
0
291
1
  0
VISUALSTYLE
  5
65
102
{ACAD_REACTORS
330
16
102
}
330
16
100
AcDbVisualStyle
  2
GouraudWithEdges
 70
3
 90
2
 40
0.6
 62
7
290
0
291
1
  0
VISUALSTYLE
  5
66
102
{ACAD_REACTORS
330
16
102
}
330
16
100
AcDbVisualStyle
  2
Hidden
 70
6
 90
1
 40
0.6
 62
7
290
0
291
0
  0
VISUALSTYLE
  5
67
102
{ACAD_REACTORS
330
16
102
}
330
16
100
AcDbVisualStyle
  2
JitterOff
 70
20
 90
2
 40
0.6
 62
7
290
0
291
1
  0
VISUALSTYLE
  5
68
102
{ACAD_REACTORS
330
16
102
}
330
16
100
AcDbVisualStyle
  2
Linepattern
 70
14
 90
2
 40
0.6
 62
7
290
0
291
1
  0
VISUALSTYLE
  5
69
102
{ACAD_REACTORS
330
16
102
}
330
16
100
AcDbVisualStyle
  2
Modeling
 70
10
 90
2
 40
0.6
 62
7
290
0
291
0
  0
VISUALSTYLE
  5
6A
102
{ACAD_REACTORS
330
16
102
}
330
16
100
AcDbVisualStyle
  2
OverhangOff
 70
21
 90
2
 40
0.6
 62
7
290
0
291
1
  0
VISUALSTYLE
  5
6B
102
{ACAD_REACTORS
330
16
102
}
330
16
100
AcDbVisualStyle
  2
Realistic
 70
8
 90
2
 40
0.6
 62
7
290
0
291
0
  0
VISUALSTYLE
  5
6C
102
{ACAD_REACTORS
330
16
102
}
330
16
100
AcDbVisualStyle
  2
Shaded
 70
27
 90
2
 40
0.6
 62
7
290
0
291
0
  0
VISUALSTYLE
  5
6D
102
{ACAD_REACTORS
330
16
102
}
330
16
100
AcDbVisualStyle
  2
Shaded with edges
 70
26
 90
2
 40
0.6
 62
7
290
0
291
0
  0
VISUALSTYLE
  5
6E
102
{ACAD_REACTORS
330
16
102
}
330
16
100
AcDbVisualStyle
  2
Shades of Gray
 70
23
 90
2
 40
0.6
 62
7
290
0
291
0
  0
VISUALSTYLE
  5
6F
102
{ACAD_REACTORS
330
16
102
}
330
16
100
AcDbVisualStyle
  2
Sketchy
 70
24
 90
1
 40
0.6
 62
7
290
0
291
0
  0
VISUALSTYLE
  5
70
102
{ACAD_REACTORS
330
16
102
}
330
16
100
AcDbVisualStyle
  2
Thicken
 70
13
 90
2
 40
0.6
 62
7
290
0
291
1
  0
VISUALSTYLE
  5
71
102
{ACAD_REACTORS
330
16
102
}
330
16
100
AcDbVisualStyle
  2
Wireframe
 70
5
 90
0
 40
0.6
 62
7
290
0
291
0
  0
VISUALSTYLE
  5
72
102
{ACAD_REACTORS
330
16
102
}
330
16
100
AcDbVisualStyle
  2
X-Ray
 70
25
 90
2
 40
0.5
 62
7
290
0
291
0
  0
DICTIONARYVAR
  5
99
330
2D
100
DictionaryVariables
280
0
  1
0.17.1 @ 2021-12-25T13:46:59.542834+00:00
  0
ENDSEC
  0
EOF
